<?xml version="1.0" encoding="UTF-8" standalone="no"?>
<!DOCTYPE svg PUBLIC "-//W3C//DTD SVG 1.0//EN"
	"http://www.w3.org/TR/2001/REC-SVG-20010904/DTD/svg10.dtd">
<svg
   xmlns:svg="http://www.w3.org/2000/svg"
   xmlns="http://www.w3.org/2000/svg"
   version="1.0"
   width="590.60175"
   height="600"
   id="jedi-knights"
   xml:space="preserve"><defs
   id="defs9" />
<g
   transform="matrix(1.25,0,0,-1.25,831.48097,645.41878)"
   id="g1">
<g
   transform="matrix(2.5676375,0,0,-2.5676375,-860.6843,-186.96836)"
   style="fill:#532814;fill-opacity:1"
   id="g2">



<path
   d="M 171.38577,-146.87499 C 173.42419,-149.84989 184.30064,-165.72444 184.30064,-165.72444 C 184.30064,-165.72444 176.01148,-142.92687 176.01148,-142.92687 C 176.01148,-142.92687 201.70967,-139.19518 201.70967,-139.19518 C 201.70967,-139.19518 176.01148,-135.4649 176.01148,-135.4649 C 176.01148,-135.4649 185.95925,-115.98313 185.95925,-115.98313 C 185.95925,-115.98313 173.54833,-129.03133 171.79458,-130.87454 C 172.51744,-102.62513 172.69532,-95.67241 172.69532,-95.67241 C 172.69532,-95.67241 236.11292,-125.10301 200.88072,-190.17991 C 200.88072,-190.17991 244.81796,-238.67709 205.02618,-268.5211 C 205.02618,-268.5211 273.00372,-227.48554 229.89613,-157.02046 C 229.89613,-157.02046 265.54245,-191.83746 246.89034,-227.07107 C 246.89034,-227.07107 279.22085,-181.47522 239.84355,-131.32014 C 239.84355,-131.32014 250.62062,-137.95316 260.15391,-163.23759 C 260.15391,-163.23759 253.19978,-87.965715 168.98591,-86.978323 C 168.98591,-86.968422 168.98591,-86.968422 168.98591,-86.968422 C 168.70511,-86.968422 168.42608,-86.968422 168.14635,-86.969841 C 167.86767,-86.968422 167.58759,-86.968422 167.3075,-86.968422 C 167.3075,-86.968422 167.3075,-86.968422 167.3075,-86.978323 C 83.093981,-87.965715 76.139847,-163.23759 76.139847,-163.23759 C 85.672786,-137.95316 96.449146,-131.32014 96.449146,-131.32014 C 57.07255,-181.47522 89.403065,-227.07107 89.403065,-227.07107 C 70.750247,-191.83746 106.39798,-157.02046 106.39798,-157.02046 C 63.289688,-227.48554 131.26651,-268.5211 131.26651,-268.5211 C 91.475437,-238.67709 135.41268,-190.17991 135.41268,-190.17991 C 100.18085,-125.10301 163.59843,-95.67241 163.59843,-95.67241 C 163.59843,-95.67241 163.77525,-102.62513 164.49811,-130.87454 C 162.74402,-129.03133 150.3338,-115.98313 150.3338,-115.98313 C 150.3338,-115.98313 160.28121,-135.4649 160.28121,-135.4649 C 160.28121,-135.4649 134.58373,-139.19518 134.58373,-139.19518 C 134.58373,-139.19518 160.28121,-142.92687 160.28121,-142.92687 C 160.28121,-142.92687 151.99312,-165.72444 151.99312,-165.72444 C 151.99312,-165.72444 162.8685,-149.84989 164.90693,-146.87499 C 165.83066,-182.95842 168.12088,-272.48974 168.1322,-272.91235 C 168.13645,-273.90504 168.13645,-273.9107 168.13645,-273.9107 C 168.13645,-273.9107 168.13645,-273.90964 168.14635,-273.49799 C 168.15731,-273.90964 168.15731,-273.9107 168.15731,-273.9107 C 168.15731,-273.9107 168.15731,-273.90504 168.16156,-272.91235 C 168.17995,-272.20612 170.46451,-182.87637 171.38577,-146.87499 C 171.38577,-146.87499 171.38577,-146.87499 171.38577,-146.87499 z "
   style="fill:#532814;fill-opacity:1;fill-rule:evenodd;stroke:none"
   id="path1" /></g>
</g>
</svg>