<?xml version="1.0" encoding="UTF-8"?>
<!DOCTYPE svg PUBLIC "-//W3C//DTD SVG 1.0//EN"
	"http://www.w3.org/TR/2001/REC-SVG-20010904/DTD/svg10.dtd">
<svg xmlns="http://www.w3.org/2000/svg" version="1.0" width="371.62735" height="300" id="mandalorians">
<g transform="translate(209.70129,-458.9208)" id="l1">
<path d="M-69.344068,458.94872C-74.417498,459.23469-77.341968,461.36606-77.341968,465.52927C-77.341948,475.93049-58.748938,494.98689-35.226418,509.06218L-35.226418,551.3802L-93.540264,471.60363C-97.375494,471.39943-99.322724,476.40852-100.01957,481.3226C-106.71277,528.52206-128.09601,529.49013-143.85621,532.5497C-201.36411,543.71392-252.2835,584.99169-155.09377,672.46243C-200.70926,612.07413-183.89223,587.00035-146.79215,580.53713C-118.13076,575.54405-82.301114,568.73713-58.207748,533.56208L-35.833858,561.50414L-54.664368,555.83474C-52.087738,713.00685-33.164958,749.14053-25.507448,757.40221C-24.896898,758.06093-24.340288,758.57107-23.887608,758.9208C-23.431578,758.56846-22.883968,758.06855-22.267788,757.40221C-14.601358,749.11199 4.3140621,712.91296 6.8891321,555.83474L-11.941378,561.50414L10.432512,533.56208C34.525882,568.73713 70.355522,575.54405 99.016912,580.53713C136.11699,587.00035 152.93402,612.07413 107.31853,672.46243C204.50828,584.99169 153.58889,543.71392 96.080972,532.5497C80.320782,529.49013 58.937542,528.52206 52.244352,481.3226C51.547502,476.40852 49.600272,471.39943 45.765032,471.60363L-12.548818,551.3802L-12.548818,509.06218C10.973702,494.98689 29.566712,475.93049 29.566742,465.52927C29.566742,460.77129 25.712232,458.68135 19.240322,458.94872C10.919332,459.29247-1.7056479,463.61023-15.788478,471.60363L-15.788478,510.98572L-15.788478,555.83474L-15.788478,562.61777L-31.986758,562.61777L-31.986758,555.83474L-31.986758,510.98572L-31.986758,471.60363C-46.069588,463.61023-58.694568,459.29247-67.015558,458.94872C-67.824548,458.91532-68.619298,458.90786-69.344068,458.94872zM-44.945388,597.95029L-31.986758,605.74572C-31.906708,616.20488-31.748058,625.66456-31.581808,634.59893L-44.945388,623.86756L-44.945388,597.95029zM-2.8298479,597.95029L-2.8298479,623.86756L-16.193428,634.59893C-16.027168,625.66453-15.868528,616.20486-15.788478,605.74572L-2.8298479,597.95029zM-44.945388,630.34687L-31.480568,641.17948C-31.986758,674.68969-27.498478,711.03461-25.507448,745.96217C-25.507448,745.96217-41.705728,726.52422-44.945388,630.34687zM-2.8298479,630.34687C-6.0694879,726.52422-22.267788,745.96217-22.267788,745.96217C-19.028128,710.32593-15.788478,674.68969-16.294668,641.17948L-2.8298479,630.34687z" style="opacity:1;fill:#000;fill-opacity:1;stroke:none;stroke-width:2;stroke-miterlimit:4;stroke-dashoffset:1.8;stroke-opacity:1" id="p1"/>
</g>
</svg>