<?xml version="1.0" encoding="UTF-8"?>
<!DOCTYPE svg PUBLIC "-//W3C//DTD SVG 1.0//EN"
	"http://www.w3.org/TR/2001/REC-SVG-20010904/DTD/svg10.dtd">
<svg xmlns="http://www.w3.org/2000/svg" version="1.0" width="416" height="480" id="empire">
<g transform="matrix(0.25550535,0,0,0.25550535,-0.49265395,-0.04727632)" id="g1">
<g id="g2">
<path d="M 444.15,229.49 C 568.31,158.17 692.55,86.97 816.82,15.84 c 124.15,71.71 248.35,143.33 372.48,215.08 -13.61,22.84 -27.22,45.69 -41.08,68.38 -110.51,-63.61 -221,-127.26 -331.58,-190.77 -110.45,63.66 -220.92,127.29 -331.5,190.72 -13.69,-23.24 -27.25,-46.56 -40.99,-69.76 z" id="p1" style="fill:#000" />
<path d="m 586.48,353.61 c 76.14,-47.63 152.5,-94.91 228.65,-142.51 76.38,47.36 152.56,95.02 228.92,142.41 -7.61,12.22 -15.19,24.47 -22.92,36.62 -38.36,-22.14 -76.62,-44.45 -115.02,-66.51 -12.32,115.44 -25.5,230.85 -37.49,346.29 51.19,29.97 102.68,59.48 154.02,89.22 93.7,-68.58 187.47,-137.08 281.18,-205.66 -38.28,-22.22 -76.59,-44.41 -114.92,-66.55 6.71,-12.68 13.09,-25.55 19.96,-38.15 79.17,42.56 158.56,84.73 237.69,127.35 -2.96,89.9 -5.98,179.79 -9.07,269.69 -14.24,-0.66 -28.49,-0.95 -42.72,-1.62 -0.02,-44.34 -0.02,-88.67 0.01,-133.01 -106.35,46.9 -212.75,93.67 -319.03,140.71 0.02,58.93 0.01,117.86 0,176.8 106.32,46.9 212.66,93.77 319.01,140.64 0,-44.35 0,-88.69 0,-133.04 14.22,-0.54 28.46,-1.06 42.69,-1.51 3.12,89.92 6.24,179.86 9.03,269.79 -79.26,42.36 -158.5,84.78 -237.73,127.19 -6.54,-12.78 -13.36,-25.43 -19.78,-38.27 38.37,-22.01 76.58,-44.29 114.87,-66.44 -94.22,-69.07 -188.46,-138.12 -282.7,-207.17 -51.44,29.7 -102.88,59.41 -154.25,89.24 13.03,115.94 26.24,231.85 39.24,347.78 38.41,-22.07 76.65,-44.42 115.05,-66.5 7.68,12.15 15.26,24.36 22.87,36.55 -75.73,47.5 -151.49,94.94 -227.22,142.43 -76.84,-47.4 -153.61,-94.91 -230.35,-142.46 7.66,-12.19 15.17,-24.46 22.94,-36.57 38.8,22.21 77.56,44.48 116.44,66.56 12.49,-115.98 25.11,-231.94 37.61,-347.92 0.67,-1.81 -1.47,-2.23 -2.52,-2.99 -50.05,-28.64 -100,-57.48 -150.07,-86.12 -94.23,69.06 -188.5,138.07 -282.7,207.18 38.3,22.71 76.58,45.42 114.93,68.04 -7.1,12.71 -14.23,25.41 -21.34,38.12 -78.81,-42.37 -157.64,-84.7 -236.31,-127.33 2.49,-89.9 4.92,-179.8 7.61,-269.69 14.64,0.64 29.29,1 43.94,1.59 0,44.4 0.01,88.79 -0.01,133.19 106.4,-47 212.91,-93.76 319.28,-140.83 -0.03,-59.42 -0.03,-118.84 -0.01,-178.26 C 449.9,804.83 343.42,758.02 237,711.09 c 0,44.37 0,88.75 0,133.12 -14.64,0.64 -29.3,0.95 -43.94,1.59 -2.62,-89.44 -5.27,-178.9 -7.52,-268.35 78.74,-42.82 157.41,-85.79 236.13,-128.65 7.27,12.63 14.25,25.43 21.44,38.11 -38.34,22.15 -76.67,44.34 -114.97,66.56 93.25,68.55 186.47,137.12 279.73,205.65 51.83,-29.75 103.82,-59.25 155.51,-89.21 -12,-115.44 -25.18,-230.86 -37.5,-346.3 -38.87,22.09 -77.64,44.36 -116.48,66.5 -7.79,-12.07 -15.26,-24.34 -22.92,-36.5 z" id="p2" style="fill:#000" />
<path d="m 16.11,477.38 c 124.13,-71.45 248.15,-143.11 372.13,-214.82 14.02,22.61 27.55,45.56 41.07,68.47 -111,64.1 -222,128.22 -333.04,192.26 -0.05,127.65 0.01,255.3 -0.04,382.94 -26.74,0.04 -53.48,0.01 -80.23,0.02 0.07,-142.96 -0.14,-285.92 0.11,-428.87 z" id="p3" style="fill:#000" />
<path d="m 1204.07,332.49 c 13.6,-23.34 27.35,-46.6 40.99,-69.92 123.67,71.51 247.11,143.4 370.83,214.81 0.25,142.95 0.04,285.91 0.11,428.87 -26.75,-0.01 -53.49,0.02 -80.23,-0.02 -0.05,-127.64 0.01,-255.29 -0.04,-382.93 -110.58,-63.55 -221.09,-127.23 -331.66,-190.81 z" id="p4" style="fill:#000" />
<path d="m 16.01,971.25 80.24,0 0,382.5996 c 113.95622,66.8326 234.29781,135.6101 333.15,192.6204 -13.49,23.38 -27.32,46.56 -40.88,69.89 C 264.24,1545.03 140.35,1472.99 16.1,1401.6 15.88,1258.15 16.05,1114.7 16.01,971.25 z" id="p5" style="fill:#000" />
<path d="m 1535.75,971.25 80.24,0 c -0.05,143.45 0.15,286.92 -0.1,430.37 -123.72,71.41 -247.16,143.3 -370.83,214.81 -13.65,-23.31 -27.39,-46.58 -40.99,-69.92 110.48,-64.29 221.46,-128.0104 331.62,-192.6604 0.13,-127.53 0.02,-255.0696 0.06,-382.5996 z" id="p6" style="fill:#000" />
<path d="m 444.17,1648.08 c 13.66,-23.31 27.31,-46.62 41.03,-69.9 110.47,64.1 221.02,128.08 331.44,192.28 110.6,-64 221.1,-128.18 331.64,-192.29 13.72,23.27 27.41,46.56 41.02,69.9 -124.12,71.77 -248.33,143.38 -372.48,215.09 -124.27,-71.6 -248.44,-143.38 -372.65,-215.08 z" id="p7" style="fill:#000" />
</g>
</g>
</svg>