<?xml version="1.0" encoding="UTF-8" standalone="no"?>
<!-- Created with Inkscape (http://www.inkscape.org/) -->
<svg
   xmlns:svg="http://www.w3.org/2000/svg"
   xmlns="http://www.w3.org/2000/svg"
   version="1.0"
   width="438.80203"
   height="432.51004"
   id="naboo">
  <defs
     id="defs5" />
  <path
     d="M 218.4128,428.80159 C 217.13088,426.73909 214.57734,422.35159 212.73827,419.05159 C 210.8992,415.75159 206.73564,408.68349 203.48591,403.3447 C 196.79176,392.34726 196.12054,388.29395 200.90208,387.74157 C 202.37806,387.57107 205.02023,388.17339 206.77356,389.08008 C 210.77155,391.14751 216.06937,390.31642 218.18974,387.28916 C 219.85536,384.91116 220.2357,372.65131 218.75553,369.05159 C 217.87514,366.91052 217.96857,366.79305 215.7729,372.80159 C 214.55479,376.13499 213.12989,376.3452 212.38359,373.30159 C 210.79032,366.80377 209.53579,347.7728 210.0599,338.05159 C 210.55221,328.92017 212.99282,312.21542 215.19279,302.91959 C 215.62439,301.0959 213.81898,299.60113 202.70792,292.58286 C 195.56373,288.07026 189.72495,284.07966 189.73286,283.71486 C 189.74077,283.35006 194.46356,279.98038 200.22795,276.22668 C 212.17416,268.44746 211.91971,270.06456 203.00911,258.55159 C 194.01232,246.92726 176.1121,235.73699 154.71848,228.36285 C 145.70576,225.25626 144.47474,225.08736 130.71848,225.06995 C 116.9072,225.05246 115.88904,225.19079 109.28266,227.98232 C 98.913958,232.36361 88.905216,240.37583 79.215699,252.05159 C 72.582081,260.04503 70.852739,268.91643 73.242835,282.69198 C 75.697672,296.84065 80.596573,305.54068 93.001844,317.78229 C 100.59936,325.27956 102.78872,328.03385 102.54056,329.78229 C 102.24215,331.88479 101.74071,332.04607 95.718478,331.9765 C 78.65762,331.77941 39.092335,312.05828 20.083853,294.27677 C 12.62152,287.29613 4.7697867,276.2713 1.6249758,268.35818 C -1.1789981,261.30269 -0.49012599,254.8882 4.7569317,239.1947 C 19.747966,194.35781 52.288976,167.61174 97.929068,162.61477 C 110.95516,161.18859 116.86378,161.27384 126.95491,163.03359 C 144.35719,166.06829 163.01357,175.89081 176.97397,189.36844 C 183.80956,195.96765 194.45271,209.88594 201.08228,220.89543 C 204.75986,227.00265 210.98327,241.30605 215.29097,253.55159 C 219.84407,266.49472 220.56429,264.83201 218.75627,245.55159 C 215.39889,209.74901 211.71652,190.89347 204.46285,172.36219 L 201.44956,164.664 L 205.33402,160.2447 C 210.53441,154.32829 218.25966,138.60536 220.729,128.91183 C 224.70809,113.29175 225.77962,88.740035 222.647,84.965455 C 220.45677,82.326389 217.12079,83.391473 212.76036,88.121978 C 208.1615,93.111147 202.61355,103.92943 202.24388,108.62868 C 202.11564,110.25888 201.74911,111.85429 201.42938,112.17402 C 200.28548,113.31792 190.99263,109.44644 188.46956,106.77486 C 182.84834,100.82275 181.3159,96.065567 181.32957,84.61014 C 181.3415,74.620439 181.59589,73.324262 186.05134,60.551587 C 191.49861,44.935569 208.20255,10.682609 213.24141,4.7958358 C 222.05074,-5.4958883 229.36019,0.93679021 233.41725,22.551587 C 234.85893,30.232436 235.19631,37.317551 235.17913,59.551587 C 235.15957,84.87384 234.97673,87.764304 232.87029,96.051587 C 231.00259,103.39959 230.58817,107.67324 230.61251,119.33425 C 230.6289,127.18971 231.1467,136.41471 231.76317,139.83425 C 233.70197,150.58872 240.95071,161.55159 246.12285,161.55159 C 248.09511,161.55159 248.143,163.29133 246.29264,167.71985 C 243.35838,174.74253 237.79377,196.85218 233.62502,218.05159 C 232.76427,222.42878 231.02494,237.87797 229.23388,257.05478 C 228.59656,263.87862 228.92829,263.36271 233.73698,250.05159 C 237.53486,239.53852 245.34244,223.57431 249.71312,217.38509 C 251.39624,215.00166 254.50465,210.57175 256.6207,207.54083 C 260.41474,202.10646 269.91871,192.58867 278.79121,185.33808 C 285.31863,180.00388 301.83589,172.07751 311.72503,169.53366 C 319.13948,167.62639 322.06054,167.40993 334.71848,167.82973 C 352.70637,168.4263 364.77691,171.31338 379.33116,178.50039 C 391.44772,184.48364 399.21807,190.15783 407.9038,199.36516 C 420.7603,212.99372 429.92656,229.29344 435.70126,248.79541 C 440.86465,266.23292 440.00988,271.8004 429.85999,286.84188 C 420.13439,301.2546 400.61696,315.65595 374.71848,327.52923 C 360.04373,334.25694 351.41349,336.88693 343.71848,336.97619 C 337.61328,337.04701 337.19809,336.90744 336.88277,334.67831 C 336.61668,332.79713 338.58655,330.29379 346.38277,322.60557 C 354.06888,315.02595 357.02962,311.2829 359.92992,305.47886 C 364.74767,295.83766 366.71848,287.97021 366.71848,278.379 C 366.71848,265.84154 364.36995,260.95687 352.83484,249.50268 C 341.89657,238.64113 335.92207,234.88229 323.46448,231.02436 C 307.21709,225.99279 293.05933,228.53683 269.56274,240.71005 C 256.51032,247.47232 248.66921,253.4731 242.9687,261.06238 C 240.08133,264.90644 237.71883,268.36884 237.7187,268.75659 C 237.71858,269.14434 242.66848,272.69229 248.71848,276.64092 C 254.76848,280.58956 259.71848,283.9931 259.71848,284.20435 C 259.71848,284.88058 241.39583,296.66469 236.37605,299.21691 C 232.34763,301.26509 231.62368,302.04647 232.06934,303.86527 C 234.10699,312.18127 236.10366,332.16864 236.13376,344.55159 C 236.16949,359.24858 234.26679,375.55159 232.51579,375.55159 C 231.98878,375.55159 230.84366,373.7341 229.97108,371.51272 C 228.08266,366.70527 227.09683,367.67521 226.14732,375.27485 C 225.36566,381.53101 226.07939,384.9125 228.74392,387.57703 C 231.17396,390.00707 234.47867,390.07418 240.81919,387.82223 C 245.33774,386.21738 245.80675,386.21129 247.33305,387.73759 C 249.45818,389.86272 248.7766,392.46287 244.10517,400.05159 C 242.07377,403.35159 237.28807,411.22659 233.47028,417.55159 C 223.2349,434.50872 222.36429,435.15919 218.4128,428.80159 z M 173.93793,364.17493 C 151.53964,355.63835 140.76778,334.11055 140.72668,297.80159 C 140.72217,293.81409 140.55047,290.55159 140.34512,290.55159 C 140.13977,290.55159 136.54056,292.61391 132.34688,295.13452 C 125.71382,299.12132 124.79649,300.01422 125.29463,301.99898 C 126.1962,305.59109 123.4674,305.76755 117.0233,302.53384 C 104.54741,296.27333 100.01756,289.46413 103.58166,282.32859 C 105.60504,278.27767 109.87996,276.13078 120.0979,274.03406 C 129.53055,272.09848 148.32574,264.98757 157.35385,259.93876 C 167.88597,254.04886 168.16189,257.18236 158.46448,272.55159 C 156.20878,276.12659 152.62159,281.18289 150.49295,283.7878 C 146.01825,289.26368 146.03316,290.1479 150.84036,304.3964 C 156.3296,320.66646 166.37482,336.67572 176.96473,346.03134 C 182.45235,350.87935 195.18483,357.61196 202.46848,359.51706 C 205.54102,360.3207 206.71848,361.14246 206.71848,362.48315 C 206.71848,365.22274 204.42372,365.79125 191.71848,366.19929 C 181.47235,366.52835 179.5337,366.30762 173.93793,364.17493 z M 246.39259,365.54458 C 236.46493,364.27544 236.01563,361.07905 245.35305,358.14914 C 248.57904,357.13689 253.91848,354.95907 257.21848,353.30955 C 265.26285,349.28853 278.6822,335.59518 284.99012,324.97086 C 289.85898,316.77032 295.94909,301.27212 297.15138,294.02272 C 297.76937,290.29644 297.51492,289.66387 293.7634,285.60025 C 289.37807,280.85008 278.54356,263.3897 278.34204,260.74791 C 278.12822,257.94507 281.56007,258.28257 286.94114,261.59358 C 292.95387,265.29325 311.70423,272.70166 319.71848,274.54417 C 336.18227,278.32924 339.86007,280.28322 341.29706,286.00867 C 342.59305,291.17229 339.76926,295.65831 331.9188,300.90751 C 325.12523,305.45002 317.9527,307.64629 318.38515,305.05159 C 318.47681,304.50159 318.70181,303.42045 318.88515,302.64905 C 319.33109,300.77269 305.50593,292.42455 304.48379,293.95299 C 304.07971,294.55722 303.74221,299.61438 303.73379,305.19112 C 303.6866,336.44138 291.75966,356.89913 269.41686,364.05346 C 261.48767,366.59244 256.90891,366.88897 246.39259,365.54458 z"
     id="path2384"
     style="fill:#000000" />
</svg>
