<?xml version="1.0" encoding="UTF-8"?>
<!DOCTYPE svg PUBLIC "-//W3C//DTD SVG 1.0//EN"
	"http://www.w3.org/TR/2001/REC-SVG-20010904/DTD/svg10.dtd">
<svg xmlns="http://www.w3.org/2000/svg" version="1.0" width="480" height="480" id="new-republic">
<g transform="matrix(0.29498725,0,0,0.29499064,-0.70687711,-0.70791884)" id="g1">
<g id="g2">
<path d="m 776.51,16.71 c 24.18,-1.01 48.39,-0.89 72.57,-0.29 11.63,0.46 23.23,1.28 34.82,2.35 15.86,0.88 31.57,3.31 47.33,5.22 9.44,1.38 18.82,3.15 28.23,4.72 25.47,4.29 50.55,10.59 75.45,17.43 39.47,11.21 78.05,25.54 115.36,42.61 85.68,39.5 164.32,94.22 231.07,160.91 64.63,64.81 118.47,140.48 157.73,223.2 3.66,8.36 7.88,16.46 11.21,24.97 9.07,20.74 17.38,41.83 24.46,63.33 13.34,39.79 23.67,80.6 30.38,122.03 1.84,10.13 3.37,20.31 4.51,30.54 1.79,12.37 3.02,24.82 3.82,37.3 2.69,26.9 2.7,53.97 2.5,80.98 -0.23,16.04 -0.84,32.08 -2.42,48.04 -0.79,10.9 -1.63,21.81 -3.15,32.64 -1.27,8.77 -2.04,17.62 -3.59,26.35 -2.89,16.6 -5.48,33.27 -9.25,49.71 -13.24,59.69 -33.22,117.91 -59.71,173.02 -50.86,105.92 -125.25,200.55 -216.52,274.58 -55.72,45.58 -117.68,83.53 -183.59,112.46 -20.03,8.63 -40.21,16.94 -60.88,23.91 -11.33,3.75 -22.6,7.68 -34.09,10.92 -21.37,6.05 -42.86,11.74 -64.65,16.14 -15.03,2.92 -30.12,5.58 -45.25,8 -16.94,2.14 -33.86,4.65 -50.93,5.6 -21.57,2.13 -43.26,2.71 -64.92,2.62 -22.01,0.09 -44.05,-0.38 -65.97,-2.55 -10.6,-0.73 -21.19,-1.6 -31.72,-3.08 -8.77,-1.26 -17.62,-2.03 -26.35,-3.57 -13.29,-2.33 -26.63,-4.42 -39.84,-7.15 -13.7,-3.04 -27.4,-6.09 -40.95,-9.74 -27.84,-7 -55.1,-16.16 -81.97,-26.24 -33.84,-13.28 -67.08,-28.22 -98.84,-45.97 -6.9,-3.7 -13.81,-7.4 -20.47,-11.52 -36.18,-21.22 -70.53,-45.48 -102.98,-72.06 C 196.05,1342.47 109.81,1219.83 61.6,1083.47 51.64,1055.27 43.18,1026.54 36.45,997.4 31.66,977.53 28.32,957.35 24.9,937.21 c -1.29,-7.59 -1.98,-15.27 -3.06,-22.88 -1.92,-12.77 -2.41,-25.69 -3.79,-38.52 -2.57,-30.55 -2.3,-61.26 -1.66,-91.89 0.45,-11.31 1.1,-22.62 2.25,-33.89 0.99,-10.24 1.48,-20.54 2.98,-30.72 1.31,-9.07 2.09,-18.22 3.74,-27.24 2.25,-12.72 4.18,-25.5 6.85,-38.14 11.05,-53.3 27.31,-105.57 49.22,-155.42 3.71,-9.43 8.36,-18.44 12.45,-27.7 25.96,-53.91 57.76,-105.05 95.13,-151.81 64.52,-81.86 145.48,-150.59 236.38,-201.53 24.2,-13.4 48.9,-25.98 74.43,-36.67 51.05,-22.18 104.56,-38.55 159.08,-49.61 11.32,-2.17 22.7,-4.01 34.06,-5.98 8.46,-1.51 17.02,-2.26 25.52,-3.47 11.38,-1.71 22.9,-2.2 34.35,-3.36 7.87,-0.82 15.78,-1.2 23.68,-1.67 m 27.88,78.72 c -29.78,0.31 -59.46,3.2 -88.94,7.2 -23.56,3.48 -46.88,8.38 -70.04,13.88 -44.86,11.29 -88.64,26.89 -130.53,46.51 -33.75,16.1 -66.42,34.52 -97.36,55.55 -13.49,9.41 -27.09,18.7 -39.82,29.14 -16.39,12.8 -32.18,26.37 -47.35,40.6 -8.1,7.24 -15.53,15.17 -23.28,22.76 -91.05,92.87 -156.28,210.95 -185.5,337.73 -6.57,27.23 -11.41,54.89 -14.32,82.75 -3.55,28.67 -4.64,57.59 -4.56,86.46 0.34,23.02 1.21,46.07 3.93,68.95 2.01,22.96 6.04,45.68 10.33,68.31 3.44,14.99 6.54,30.07 10.74,44.87 20.29,75.43 53.24,147.42 97.01,212.11 27.88,41.86 60.58,80.43 96.72,115.39 52.52,51.02 113.08,93.67 178.51,126.51 23.49,11.36 47.29,22.16 71.84,31.05 16.25,5.69 32.46,11.53 49.09,16.05 36.32,10.43 73.44,18.06 110.94,22.78 9.38,0.95 18.75,1.98 28.14,2.9 44.58,3.5 89.5,3.22 133.99,-1.38 14.35,-1.94 28.79,-3.18 43.06,-5.74 11.71,-2.15 23.49,-4.02 35.08,-6.76 13.33,-3.15 26.71,-6.15 39.88,-9.91 85.48,-23.68 166.4,-63.58 237.36,-116.78 50.91,-38.14 96.66,-83.1 135.89,-133.16 10.51,-12.97 19.89,-26.8 29.44,-40.48 10.95,-16.31 21.22,-33.08 30.98,-50.12 7.74,-14.32 15.3,-28.74 22.41,-43.39 18.37,-38.87 33.16,-79.43 44.37,-120.94 8.36,-32.3 15.32,-65.05 19.04,-98.23 5.7,-43.44 6.26,-87.41 4.17,-131.12 -0.94,-12.55 -2.15,-25.08 -3.24,-37.61 -7.19,-61.56 -21.92,-122.3 -44.57,-180.01 -19.21,-48.82 -43.65,-95.59 -72.94,-139.13 -40.95,-60.65 -91.1,-115.09 -148.3,-160.75 C 1185.75,186.89 1090.83,139.97 990.27,115.66 965.16,109.42 939.65,104.9 914.04,101.29 901.44,99.4 888.72,98.66 876.07,97.28 852.23,95.48 828.29,95 804.39,95.43 z" id="p1" style="fill:#820" />
<path d="m 465.19,253.16 c 42.9,-28.67 90.58,-49.61 139.68,-65.11 -10.22,5.72 -20.76,10.89 -30.74,17.06 -36.15,21.56 -69.41,48.07 -97.99,79 -21.95,23.98 -41.16,50.74 -54.88,80.3 -10.62,22.14 -18.19,45.78 -22.13,70.02 -2.99,15.66 -4.2,31.65 -3.79,47.58 0.41,44.08 14.31,87.35 36.42,125.24 19.09,32.97 43.97,62.37 72.12,87.95 15.65,14.06 33.02,26.09 48.23,40.66 7.3,7.05 14.5,14.26 20.74,22.3 8.45,10.67 15.76,22.55 19.33,35.8 2.89,9.75 2.14,20.01 2.22,30.04 0.07,13.22 -0.14,26.45 0.11,39.68 0.44,11.42 -0.05,22.86 0.35,34.29 0.27,7.67 0.06,15.35 0.16,23.03 0.52,18.6 0.19,37.2 0.47,55.8 0.37,9.39 0.06,18.79 0.41,28.18 0.11,5.27 0.42,10.57 -0.1,15.84 -2.93,0.38 -5.87,0.57 -8.81,0.53 -35.45,0 -70.57,-8.49 -103.08,-22.37 -19.36,-8.71 -38.09,-19.01 -55.14,-31.71 -18.55,-13.51 -35.79,-28.89 -50.93,-46.15 -21.06,-23.36 -38.65,-49.66 -53.6,-77.27 -3.45,-6.56 -7.21,-12.96 -10.25,-19.73 -3.74,-8.52 -8.45,-16.57 -11.83,-25.24 -13.07,-31.23 -21.18,-64.34 -26.07,-97.78 -1.59,-14.32 -3.52,-28.63 -3.88,-43.05 -2.27,-50.73 2.71,-101.79 15.07,-151.05 6.84,-26.28 15.4,-52.19 26.82,-76.86 20.39,-45.82 49.48,-87.68 84.84,-123.2 20.29,-19.99 42.39,-38.2 66.25,-53.78 z" id="p2" style="fill:#820" />
<path d="m 1030.93,188.27 c 8.85,2.39 17.44,5.62 26.1,8.63 20.53,7.53 40.91,15.62 60.36,25.68 42.29,20.79 81.65,47.76 115.56,80.55 32.9,32.11 60.47,69.69 81.1,110.78 4.14,8.86 8.51,17.61 12.29,26.64 20.36,48.72 32.25,100.84 36.23,153.45 1.32,14.63 1.41,29.33 1.45,44 0.22,37.54 -4.81,75 -13.86,111.4 -6.37,23.46 -14.02,46.74 -25.36,68.33 -10.25,21.43 -21.55,42.44 -34.96,62.08 -22.4,33.77 -50.33,64.09 -83.28,87.8 -33.81,24.63 -73.04,42 -114.21,49.63 -11.33,2.21 -22.84,3.5 -34.38,3.9 -5.98,0.18 -12,0.53 -17.94,-0.31 -0.9,-6.92 0.01,-13.89 -0.04,-20.83 -0.11,-12.02 0.45,-24.02 0.32,-36.04 0.62,-22.65 0.06,-45.31 0.67,-67.96 0.1,-7.67 -0.11,-15.35 0.11,-23.02 0.55,-16.35 -0.14,-32.72 0.45,-49.08 0.32,-9.64 -0.77,-19.47 1.66,-28.92 2.12,-8.06 5.75,-15.67 9.96,-22.84 14.4,-23.59 35.69,-41.82 57.04,-58.91 17.36,-13.49 33.76,-28.28 48.45,-44.66 24.77,-26.99 45.7,-57.67 60.58,-91.19 8.07,-19.14 14.59,-39.02 17.92,-59.56 2.77,-14.09 3.43,-28.48 3.26,-42.81 -0.08,-25.33 -4.51,-50.5 -11.75,-74.73 -5.64,-18.48 -13.78,-36.06 -22.88,-53.07 -12.47,-22.35 -27.92,-42.94 -45.03,-61.93 -32.08,-35.01 -70.17,-64.31 -111.61,-87.41 -6.01,-3.32 -12.42,-5.89 -18.21,-9.6 z" id="p3" style="fill:#820" />
<path d="m 705.77,376.82 c 3.16,-3.8 6.43,-7.53 10.06,-10.9 -1.96,2.99 -4.09,5.84 -6.3,8.63 -10,12.53 -17.87,26.82 -22.68,42.12 -2.8,10.55 -5.42,21.28 -5.59,32.25 -0.23,8.14 -0.25,16.34 1.04,24.41 3.66,24.6 13.97,47.91 28.29,68.14 6.46,8.72 13.7,17 22.33,23.66 5.23,4.11 11.4,6.73 17.24,9.85 10.02,5.41 20.39,10.43 29.26,17.68 8.61,6.75 14.69,17.19 14.2,28.36 -0.04,237.66 0,475.32 -0.02,712.98 0.01,4.34 -0.26,8.7 0.12,13.04 0.42,4.78 2.64,9.14 4.74,13.38 2.77,5.35 5.75,10.77 10.26,14.89 2.74,2.47 6.34,4.51 10.17,4.01 4.85,-0.66 8.59,-4.35 11.14,-8.3 3.09,-4.88 5.43,-10.21 7.34,-15.64 2.45,-6.87 1.43,-14.27 1.73,-21.4 0.45,-13 -0.06,-26.01 0.45,-39 0.09,-18.99 0.1,-37.98 0.2,-56.97 0.46,-11.67 0.09,-23.36 0.34,-35.03 0.47,-13 -0.06,-26.01 0.46,-39 0.1,-19.32 0.1,-38.65 0.21,-57.97 0.46,-11.67 0.06,-23.36 0.35,-35.03 0.44,-12.67 -0.07,-25.34 0.44,-38 0.1,-19.32 0.09,-38.65 0.2,-57.97 0.51,-12.7 -0.02,-25.43 0.61,-38.12 0.93,4.65 0.43,9.42 0.71,14.14 0.61,11.66 1.35,23.33 2.45,34.97 1.03,11.09 1.41,22.23 2.77,33.3 1.18,9.99 1.66,20.05 3.07,30.02 1.85,13.19 2.81,26.49 4.98,39.64 4.72,29.15 9.12,58.42 16.43,87.07 3.65,15.54 7.74,31 12.9,46.13 8.21,25.48 18.44,50.56 33.26,72.98 5.58,8.53 12.5,16.07 19.69,23.27 0.87,0.81 1.77,1.65 2.85,2.28 1.95,0.81 4.23,-0.24 5.47,-1.83 2.3,-2.85 3.77,-6.25 5.49,-9.45 13.05,-25.17 26.38,-50.21 39.81,-75.18 2.25,-4.21 4.66,-8.45 8.27,-11.65 5.65,-5.05 12.4,-8.69 19.3,-11.71 9.28,-3.92 19.02,-7.06 29.12,-7.82 21.23,-1.99 42.28,2.43 63.1,5.98 11.91,1.88 23.86,3.76 35.91,4.56 12.05,0.33 24.14,0.16 36.16,-0.89 27.57,-2.98 54.81,-9.54 80.45,-20.15 17.09,-7.24 33.75,-15.57 49.39,-25.58 36.96,-23.26 69.23,-53.45 96.9,-87.12 3.76,-4.57 7.25,-9.35 11.16,-13.8 -3.87,10.44 -8.6,20.55 -13.42,30.58 -4.03,9.34 -9.17,18.11 -13.79,27.15 -16.63,31.08 -35.55,60.99 -57.25,88.79 -13.01,16.81 -27.51,32.43 -42.99,46.99 -21.42,19.52 -45.4,36.68 -72.37,47.62 -26.47,10.86 -55.83,14.92 -84.17,10.6 -11.49,-1.87 -22.61,-5.46 -33.57,-9.3 -9,-3.13 -17.39,-7.69 -25.9,-11.9 -11.05,-5.51 -21.42,-12.28 -31.33,-19.62 8.74,9.86 18.34,18.9 28.05,27.79 13.76,12.12 28.2,23.58 43.96,33.01 12.83,7.89 26.75,14.18 41.41,17.76 4.7,1.18 9.55,1.47 14.36,1.95 -4.03,3.54 -8.47,6.57 -12.88,9.62 -31.01,21.11 -64.54,38.25 -98.99,53 -67.3,28.06 -139.26,45.07 -212.06,49.47 -15.02,0.78 -30.06,1.17 -45.09,1.15 -16.06,-0.37 -32.15,-0.43 -48.14,-2.1 -36.12,-2.45 -71.9,-8.82 -107.01,-17.52 -33.4,-8.75 -66.28,-19.74 -97.74,-34.02 -28.1,-12.44 -55.23,-27.17 -80.63,-44.49 -5.89,-4.22 -12.05,-8.15 -17.31,-13.16 21.3,-3.84 42.03,-10.95 61.25,-20.89 18.52,-9.22 35.46,-21.47 50.43,-35.71 7.24,-7.08 13.83,-14.81 19.96,-22.86 -11.05,6.87 -22.35,13.38 -34.26,18.65 -14.23,6.96 -29.27,12.15 -44.56,16.19 -18.48,4.91 -37.87,5.58 -56.82,3.68 -26.22,-3.08 -51.15,-13.78 -72.6,-28.97 -13.93,-9.49 -26.51,-20.75 -38.59,-32.45 -32.04,-32.78 -58.72,-70.35 -82.78,-109.23 -12.72,-20.23 -24.29,-41.13 -35.88,-62.01 -3.38,-6.59 -6.94,-13.08 -10.27,-19.68 9.18,9.43 17.96,19.26 27.2,28.64 29.01,28.94 59.88,56.25 94.06,78.97 24.34,15.82 50.55,29.79 79.24,35.59 10.03,2.37 20.39,1.53 30.56,2.62 8.94,0.9 17.94,0.65 26.91,0.98 16.3,0.2 32.61,0.13 48.9,-0.52 11.76,-0.53 23.44,-2.12 35.12,-3.52 6.68,-0.82 13.26,-2.29 19.8,-3.88 12.52,-3.05 26.15,-3.09 38.16,1.98 15.35,5.97 27.23,18.21 36.7,31.32 6.98,9.73 13.11,20.08 18.27,30.9 3.73,7.85 7.93,15.46 11.46,23.41 3.21,7.24 6.93,14.25 11.02,21.03 2.15,3.28 4.51,6.95 8.45,8.24 3.42,-2.42 5.51,-6.15 7.37,-9.79 6.79,-13.42 11.04,-27.89 15.76,-42.1 6.51,-21.27 12.19,-42.8 16.73,-64.58 7.13,-29.85 10.48,-60.4 14.64,-90.75 1.81,-12.84 2.67,-25.77 4.21,-38.63 2.82,-34.32 6.13,-68.62 7.22,-103.05 0.27,-5.99 0.79,-11.97 0.81,-17.96 0.04,-14.02 0.8,-28.03 0.7,-42.04 -0.02,-7.67 -0.02,-15.34 -0.01,-23 0.15,-16.35 -0.65,-32.7 -0.7,-49.05 -0.66,-21.31 -2.28,-42.58 -4.16,-63.81 -2.37,-18.98 -5,-38 -10.05,-56.47 -6.61,-25 -18.02,-48.49 -31.63,-70.38 -10.19,-16.35 -21.89,-31.87 -35.77,-45.26 -12.52,-12.44 -27.69,-22.84 -44.96,-27.25 -4.83,-1.32 -9.87,-1.46 -14.81,-2.08 0.22,-9.63 2.27,-19.12 4.07,-28.55 5.12,-24.88 12.27,-49.36 21.82,-72.9 4.89,-13 10.99,-25.49 17.39,-37.8 11.21,-21.25 24.65,-41.36 40.27,-59.63 z" id="p4" style="fill:#820" />
<path d="m 806.64,382.28 c 1.14,-0.18 2.29,-0.38 3.45,-0.61 0.61,5.76 0.28,11.55 0.31,17.33 0,41 0,82 0,123 -0.03,5.61 0.43,11.27 -0.49,16.84 -1.15,-0.1 -2.28,-0.15 -3.41,-0.16 -3.05,-12.11 -5.56,-24.35 -8.45,-36.5 -1.24,-4.92 -1.88,-9.98 -3.45,-14.81 -5.5,-0.77 -11.07,-0.55 -16.6,-0.66 -16.33,-0.03 -32.67,0.01 -49,-0.02 -5.36,-0.03 -10.72,0.29 -16.07,-0.11 -0.1,-1.26 -0.85,-2.95 0.52,-3.81 4.12,-2.1 8.76,-2.84 13.11,-4.34 11.05,-3.68 22.21,-6.98 33.26,-10.67 4.5,-1.56 9.37,-2.33 13.43,-4.96 0.12,-1.82 0.08,-3.63 -0.15,-5.43 -3.96,-1.76 -8.17,-2.82 -12.28,-4.14 -10.1,-3.32 -20.3,-6.32 -30.37,-9.73 -5.79,-2.01 -11.85,-3.24 -17.44,-5.78 -0.11,-1.18 -0.23,-2.36 -0.34,-3.52 16.43,-0.62 32.91,0.19 49.35,-0.4 10.85,-0.41 21.71,0.26 32.55,-0.22 0.4,-1.25 0.84,-2.49 1.19,-3.75 3.43,-15.9 7.47,-31.65 10.88,-47.55 z" id="p5" style="fill:#820" />
<path d="m 825.91,381.65 c 1.16,0.16 2.32,0.38 3.47,0.65 3.17,12.43 5.59,25.03 8.74,37.46 1.15,4.58 1.8,9.28 3.33,13.76 8.17,0.59 16.37,-0.04 24.55,0.17 16.66,0.38 33.32,0.39 49.98,0.24 2.44,-0.04 4.89,0.09 7.34,0.27 -0.13,1.16 -0.24,2.33 -0.32,3.5 -5.86,2.69 -12.21,4.03 -18.28,6.11 -12.02,3.98 -24.12,7.7 -36.19,11.51 -1.85,0.56 -3.61,1.34 -5.38,2.07 -0.5,1.77 -0.58,3.61 -0.39,5.44 2.81,1.56 5.86,2.6 8.93,3.53 15.74,4.89 31.38,10.13 47.19,14.84 1.24,0.42 2.51,0.86 3.66,1.57 1.3,0.86 0.75,2.56 0.49,3.8 -5.34,0.41 -10.69,0.09 -16.03,0.12 -16.67,0.03 -33.33,-0.02 -50,0.02 -5.18,0.1 -10.4,-0.08 -15.54,0.69 -1.68,5.39 -2.33,11.03 -3.76,16.48 -3.03,11.53 -4.9,23.34 -8.18,34.79 -1.15,0.02 -2.3,0.08 -3.43,0.18 -0.93,-5.57 -0.47,-11.23 -0.49,-16.85 0,-41 0,-82 0,-123 0.02,-5.78 -0.31,-11.59 0.31,-17.35 z" id="p6" style="fill:#820" />
<path d="m 225.79,526.72 c 3.62,-6.95 6.72,-14.18 10.88,-20.83 -5.87,24.38 -9.39,49.26 -11.68,74.21 -2.59,24.88 -2.75,49.97 -1.74,74.95 3.4,64.34 17.88,128.5 45.92,186.7 9.64,19.33 20.49,38.17 33.86,55.2 19.73,24.11 40.41,47.61 63.99,68.05 15.5,13.23 32.22,25.11 50.14,34.83 10.56,5.31 20.99,10.95 32.08,15.09 16.16,6.56 32.86,11.66 49.75,15.95 12.35,3.09 25.1,4.56 37.17,8.75 16.12,5.08 30.56,14.86 42.02,27.21 15.89,16.87 26.1,38.28 32.89,60.24 3.19,9.36 5.12,19.07 6.99,28.77 0.47,2.42 0.71,4.91 0.51,7.4 -20.97,8.97 -42.79,16.32 -65.36,19.93 -13.25,2.53 -26.75,3.2 -40.2,3.49 -33.08,0.76 -66.02,-5.67 -97.18,-16.52 -12.07,-4.57 -24.15,-9.21 -35.59,-15.23 -26,-12.38 -50.45,-28.08 -72.45,-46.66 -9.42,-8.22 -18.8,-16.54 -27.1,-25.91 -29.56,-31.71 -52.57,-69.08 -70.28,-108.54 -7.7,-17.89 -14.86,-36.05 -20.54,-54.7 -3.79,-12.72 -7.62,-25.45 -10.51,-38.42 -2.43,-9.5 -3.94,-19.2 -6.03,-28.78 -1.48,-6.91 -2.24,-13.94 -3.33,-20.91 -2.74,-17.53 -4.12,-35.26 -4.3,-52.99 0.37,-19.92 0.82,-39.9 3.45,-59.68 1.29,-9.24 2.16,-18.53 3.71,-27.73 3.15,-18.38 6.89,-36.67 11.97,-54.62 9.99,-37.66 24.17,-74.13 40.96,-109.25 z" id="p7" style="fill:#820" />
<path d="m 1399.17,505.95 c 3.56,5.34 6.17,11.22 8.98,16.97 6.76,14.37 13.67,28.7 19.42,43.52 24.56,60.53 39.69,125.13 42.06,190.5 0.07,5.69 0.21,11.37 0.36,17.06 0.42,30.88 -4.11,61.59 -10.26,91.77 -2.35,11.59 -4.98,23.13 -8.31,34.48 -13.02,47.49 -32.25,93.56 -59.38,134.77 -26.47,40.56 -61.31,75.96 -102.7,101.33 -18.47,11.59 -38.04,21.42 -58.23,29.64 -18.64,7.07 -37.77,13.01 -57.41,16.49 -20.66,3.39 -41.66,4.91 -62.58,3.97 -25.54,-1.55 -50.91,-6.67 -74.89,-15.63 -6.25,-2.58 -12.7,-4.7 -18.85,-7.51 -0.67,-4.87 0.81,-9.66 1.71,-14.39 3.75,-18.53 9.77,-36.65 18.38,-53.5 7.64,-14.55 17.81,-27.9 30.51,-38.4 7.85,-6.6 16.89,-11.64 26.33,-15.57 11.56,-4.84 24.11,-6.34 36.25,-9.12 23.33,-5.52 46.35,-12.68 68.22,-22.57 33.39,-15 63.58,-36.71 89.19,-62.79 5.14,-5.19 10.41,-10.26 15.28,-15.71 10.87,-12.14 21.63,-24.42 31.76,-37.19 24.12,-32.49 41.35,-69.65 53.9,-107.99 5.09,-17.1 10.36,-34.2 13.58,-51.77 2.02,-9.27 3.37,-18.65 4.9,-28 2.81,-19.65 5.14,-39.41 5.42,-59.29 0.4,-21.45 0.45,-42.97 -1.7,-64.34 -2.31,-25.79 -6,-51.51 -11.94,-76.73 z" id="p8" style="fill:#820" />
</g>
</g>
</svg>