<?xml version="1.0" encoding="utf-8"?>
<!-- Generator: Adobe Illustrator 16.0.0, SVG Export Plug-In . SVG Version: 6.00 Build 0)  -->
<!DOCTYPE svg PUBLIC "-//W3C//DTD SVG 1.1//EN" "http://www.w3.org/Graphics/SVG/1.1/DTD/svg11.dtd">
<svg version="1.1" id="sith" xmlns="http://www.w3.org/2000/svg"  x="0px" y="0px"
	 width="600px" height="600px" viewBox="0 0 600 600" enable-background="new 0 0 600 600" xml:space="preserve">
<path fill="#9E1919" d="M506.634,440.923l78.835,15.426l-93.537-121.917c4.063-22.775,4.066-46.132,0-68.906l93.537-121.918
	l-78.835,15.428L600,0L440.966,93.365l15.426-78.878l-121.96,93.58C323.051,106.038,311.527,105,300,105
	c-11.527-0.001-23.051,1.041-34.432,3.067l-121.96-93.58l15.426,78.878L0,0l93.367,159.034l-78.836-15.428l93.537,121.918
	c-4.061,22.774-4.063,46.132,0,68.906L14.531,456.348l78.836-15.426L0,600l159.034-93.367l-15.426,78.835l121.917-93.536
	c22.789,4.068,46.161,4.069,68.95,0l121.916,93.536l-15.426-78.835L600,600L506.634,440.923z M417.656,417.656
	c-64.941,64.941-170.362,64.907-235.313-0.042c-64.949-64.949-64.941-170.37,0-235.313c32.471-32.471,75.065-48.667,117.656-48.665
	c42.591,0.003,85.183,16.233,117.656,48.708C482.604,247.293,482.598,352.715,417.656,417.656z"/>
<circle fill="#9E1919" cx="300" cy="300.001" r="155.906"/>
</svg>
