<?xml version="1.0" encoding="UTF-8" standalone="yes"?><svg xmlns="http://www.w3.org/2000/svg" xmlns:xlink="http://www.w3.org/1999/xlink" height="290px" style="width:356px;height:290px;" version="1.1" viewBox="0 0 356 290" width="356px"><defs><filter height="300%" id="f1" width="300%" x="-1" y="-1"><feGaussianBlur result="blurOut" stdDeviation="2.0"/><feColorMatrix in="blurOut" result="blurOut2" type="matrix" values="0 0 0 0 0 0 0 0 0 0 0 0 0 0 0 0 0 0 .4 0"/><feOffset dx="4.0" dy="4.0" in="blurOut2" result="blurOut3"/><feBlend in="SourceGraphic" in2="blurOut3" mode="normal"/></filter></defs><g><rect fill="#FEFECE" filter="url(#f1)" height="111.5313" style="stroke: #A80036; stroke-width: 1.5;" width="112" x="6" y="8"/><ellipse cx="39.45" cy="28.0938" fill="#ADD1B2" rx="11" ry="11" style="stroke: #A80036; stroke-width: 1.0;"/><path d="M42.2156,23.9688 Q42.3719,23.75 42.5594,23.6406 Q42.7469,23.5313 42.9656,23.5313 Q43.3406,23.5313 43.575,23.7891 Q43.8094,24.0469 43.8094,24.6563 L43.8094,26.1094 Q43.8094,26.7188 43.575,26.9844 Q43.3406,27.25 42.9656,27.25 Q42.6219,27.25 42.4188,27.0469 Q42.2156,26.8594 42.1063,26.3438 Q42.0594,25.9844 41.8719,25.7969 Q41.5438,25.4219 40.9344,25.2031 Q40.325,24.9844 39.7,24.9844 Q38.9344,24.9844 38.3016,25.3125 Q37.6688,25.6406 37.1766,26.3906 Q36.6844,27.1406 36.6844,28.1719 L36.6844,29.2656 Q36.6844,30.5 37.575,31.3203 Q38.4656,32.1406 40.0594,32.1406 Q40.9969,32.1406 41.6531,31.8906 Q42.0438,31.7344 42.4656,31.2969 Q42.7313,31.0313 42.8797,30.9531 Q43.0281,30.875 43.2313,30.875 Q43.5594,30.875 43.8172,31.1328 Q44.075,31.3906 44.075,31.7344 Q44.075,32.0781 43.7313,32.4844 Q43.2313,33.0625 42.4344,33.3906 Q41.3563,33.8438 40.0594,33.8438 Q38.5438,33.8438 37.3406,33.2188 Q36.3563,32.7188 35.6688,31.6484 Q34.9813,30.5781 34.9813,29.2969 L34.9813,28.1406 Q34.9813,26.8125 35.5984,25.6641 Q36.2156,24.5156 37.3094,23.8984 Q38.4031,23.2813 39.6375,23.2813 Q40.3719,23.2813 41.0203,23.4453 Q41.6688,23.6094 42.2156,23.9688 Z "/><text fill="#000000" font-family="sans-serif" font-size="12" font-style="italic" lengthAdjust="spacingAndGlyphs" textLength="43" x="55.55" y="25.457">«entity»</text><text fill="#000000" font-family="sans-serif" font-size="12" lengthAdjust="spacingAndGlyphs" textLength="27" x="63.55" y="40.5508">User</text><line style="stroke: #A80036; stroke-width: 1.5;" x1="7" x2="117" y1="48.1875" y2="48.1875"/><text fill="#000000" font-family="sans-serif" font-size="11" lengthAdjust="spacingAndGlyphs" textLength="64" x="12" y="63.6064">userId: String</text><text fill="#000000" font-family="sans-serif" font-size="11" lengthAdjust="spacingAndGlyphs" textLength="75" x="12" y="77.4424">fullName: String</text><text fill="#000000" font-family="sans-serif" font-size="11" lengthAdjust="spacingAndGlyphs" textLength="83" x="12" y="91.2783">dateOfBirth: Date</text><text fill="#000000" font-family="sans-serif" font-size="11" lengthAdjust="spacingAndGlyphs" textLength="100" x="12" y="105.1143">emailAddress: String</text><line style="stroke: #A80036; stroke-width: 1.5;" x1="7" x2="117" y1="111.5313" y2="111.5313"/><rect fill="#FEFECE" filter="url(#f1)" height="83.8594" style="stroke: #A80036; stroke-width: 1.5;" width="101" x="246.5" y="198"/><ellipse cx="275" cy="218.0938" fill="#ADD1B2" rx="11" ry="11" style="stroke: #A80036; stroke-width: 1.0;"/><path d="M277.7656,213.9688 Q277.9219,213.75 278.1094,213.6406 Q278.2969,213.5313 278.5156,213.5313 Q278.8906,213.5313 279.125,213.7891 Q279.3594,214.0469 279.3594,214.6563 L279.3594,216.1094 Q279.3594,216.7188 279.125,216.9844 Q278.8906,217.25 278.5156,217.25 Q278.1719,217.25 277.9688,217.0469 Q277.7656,216.8594 277.6563,216.3438 Q277.6094,215.9844 277.4219,215.7969 Q277.0938,215.4219 276.4844,215.2031 Q275.875,214.9844 275.25,214.9844 Q274.4844,214.9844 273.8516,215.3125 Q273.2188,215.6406 272.7266,216.3906 Q272.2344,217.1406 272.2344,218.1719 L272.2344,219.2656 Q272.2344,220.5 273.125,221.3203 Q274.0156,222.1406 275.6094,222.1406 Q276.5469,222.1406 277.2031,221.8906 Q277.5938,221.7344 278.0156,221.2969 Q278.2813,221.0313 278.4297,220.9531 Q278.5781,220.875 278.7813,220.875 Q279.1094,220.875 279.3672,221.1328 Q279.625,221.3906 279.625,221.7344 Q279.625,222.0781 279.2813,222.4844 Q278.7813,223.0625 277.9844,223.3906 Q276.9063,223.8438 275.6094,223.8438 Q274.0938,223.8438 272.8906,223.2188 Q271.9063,222.7188 271.2188,221.6484 Q270.5313,220.5781 270.5313,219.2969 L270.5313,218.1406 Q270.5313,216.8125 271.1484,215.6641 Q271.7656,214.5156 272.8594,213.8984 Q273.9531,213.2813 275.1875,213.2813 Q275.9219,213.2813 276.5703,213.4453 Q277.2188,213.6094 277.7656,213.9688 Z "/><text fill="#000000" font-family="sans-serif" font-size="12" font-style="italic" lengthAdjust="spacingAndGlyphs" textLength="43" x="290" y="215.457">«entity»</text><text fill="#000000" font-family="sans-serif" font-size="12" lengthAdjust="spacingAndGlyphs" textLength="34" x="294.5" y="230.5508">Group</text><line style="stroke: #A80036; stroke-width: 1.5;" x1="247.5" x2="346.5" y1="238.1875" y2="238.1875"/><text fill="#000000" font-family="sans-serif" font-size="11" lengthAdjust="spacingAndGlyphs" textLength="89" x="252.5" y="253.6064">groupName: String</text><text fill="#000000" font-family="sans-serif" font-size="11" lengthAdjust="spacingAndGlyphs" textLength="87" x="252.5" y="267.4424">description: String</text><line style="stroke: #A80036; stroke-width: 1.5;" x1="247.5" x2="346.5" y1="273.8594" y2="273.8594"/><rect fill="#FEFECE" filter="url(#f1)" height="70.0234" style="stroke: #A80036; stroke-width: 1.5;" width="111" x="6.5" y="205"/><ellipse cx="21.5" cy="225.0938" fill="#ADD1B2" rx="11" ry="11" style="stroke: #A80036; stroke-width: 1.0;"/><path d="M24.2656,220.9688 Q24.4219,220.75 24.6094,220.6406 Q24.7969,220.5313 25.0156,220.5313 Q25.3906,220.5313 25.625,220.7891 Q25.8594,221.0469 25.8594,221.6563 L25.8594,223.1094 Q25.8594,223.7188 25.625,223.9844 Q25.3906,224.25 25.0156,224.25 Q24.6719,224.25 24.4688,224.0469 Q24.2656,223.8594 24.1563,223.3438 Q24.1094,222.9844 23.9219,222.7969 Q23.5938,222.4219 22.9844,222.2031 Q22.375,221.9844 21.75,221.9844 Q20.9844,221.9844 20.3516,222.3125 Q19.7188,222.6406 19.2266,223.3906 Q18.7344,224.1406 18.7344,225.1719 L18.7344,226.2656 Q18.7344,227.5 19.625,228.3203 Q20.5156,229.1406 22.1094,229.1406 Q23.0469,229.1406 23.7031,228.8906 Q24.0938,228.7344 24.5156,228.2969 Q24.7813,228.0313 24.9297,227.9531 Q25.0781,227.875 25.2813,227.875 Q25.6094,227.875 25.8672,228.1328 Q26.125,228.3906 26.125,228.7344 Q26.125,229.0781 25.7813,229.4844 Q25.2813,230.0625 24.4844,230.3906 Q23.4063,230.8438 22.1094,230.8438 Q20.5938,230.8438 19.3906,230.2188 Q18.4063,229.7188 17.7188,228.6484 Q17.0313,227.5781 17.0313,226.2969 L17.0313,225.1406 Q17.0313,223.8125 17.6484,222.6641 Q18.2656,221.5156 19.3594,220.8984 Q20.4531,220.2813 21.6875,220.2813 Q22.4219,220.2813 23.0703,220.4453 Q23.7188,220.6094 24.2656,220.9688 Z "/><text fill="#000000" font-family="sans-serif" font-size="12" font-style="italic" lengthAdjust="spacingAndGlyphs" textLength="43" x="53.5" y="222.457">«entity»</text><text fill="#000000" font-family="sans-serif" font-size="12" lengthAdjust="spacingAndGlyphs" textLength="79" x="35.5" y="237.5508">GroupMember</text><line style="stroke: #A80036; stroke-width: 1.5;" x1="7.5" x2="116.5" y1="245.1875" y2="245.1875"/><text fill="#000000" font-family="sans-serif" font-size="11" lengthAdjust="spacingAndGlyphs" textLength="82" x="12.5" y="260.6064">enabled: boolean</text><line style="stroke: #A80036; stroke-width: 1.5;" x1="7.5" x2="116.5" y1="267.0234" y2="267.0234"/><path d="M117.692,240 C154.82,240 203.458,240 240.709,240 " fill="none" style="stroke: #A80036; stroke-width: 1.0;"/><polygon fill="#A80036" points="246.119,240,237.119,236,241.119,240,237.119,244,246.119,240" style="stroke: #A80036; stroke-width: 1.0;"/><text fill="#000000" font-family="sans-serif" font-size="13" lengthAdjust="spacingAndGlyphs" textLength="92" x="136" y="233.4951">memberOfgroup</text><path d="M62,125.319 C62,151.902 62,182.1645 62,204.7789 " fill="none" style="stroke: #A80036; stroke-width: 1.0;"/><polygon fill="#A80036" points="62,120.055,58,129.055,62,125.055,66,129.055,62,120.055" style="stroke: #A80036; stroke-width: 1.0;"/><text fill="#000000" font-family="sans-serif" font-size="13" lengthAdjust="spacingAndGlyphs" textLength="47" x="63" y="164.4951">member</text></g></svg>