<?xml version="1.0" encoding="UTF-8" standalone="yes"?><svg xmlns="http://www.w3.org/2000/svg" xmlns:xlink="http://www.w3.org/1999/xlink" height="981px" style="width:1470px;height:981px;" version="1.1" viewBox="0 0 1470 981" width="1470px"><defs><filter height="300%" id="f1" width="300%" x="-1" y="-1"><feGaussianBlur result="blurOut" stdDeviation="2.0"/><feColorMatrix in="blurOut" result="blurOut2" type="matrix" values="0 0 0 0 0 0 0 0 0 0 0 0 0 0 0 0 0 0 .4 0"/><feOffset dx="4.0" dy="4.0" in="blurOut2" result="blurOut3"/><feBlend in="SourceGraphic" in2="blurOut3" mode="normal"/></filter></defs><g><polygon fill="#FFFFFF" filter="url(#f1)" points="461,768,556,768,563,791.6094,1463,791.6094,1463,974,461,974,461,768" style="stroke: #000000; stroke-width: 2.0;"/><line style="stroke: #000000; stroke-width: 2.0;" x1="461" x2="563" y1="791.6094" y2="791.6094"/><text fill="#000000" font-family="sans-serif" font-size="14" font-weight="bold" lengthAdjust="spacingAndGlyphs" textLength="89" x="465" y="784.5332">Data Service</text><polygon fill="#FFFFFF" filter="url(#f1)" points="310,413,429,413,436,436.6094,1020,436.6094,1020,735,310,735,310,413" style="stroke: #000000; stroke-width: 2.0;"/><line style="stroke: #000000; stroke-width: 2.0;" x1="310" x2="436" y1="436.6094" y2="436.6094"/><text fill="#000000" font-family="sans-serif" font-size="14" font-weight="bold" lengthAdjust="spacingAndGlyphs" textLength="113" x="314" y="429.5332">Web Application</text><polygon fill="#FFFFFF" filter="url(#f1)" points="22,24,117,24,124,47.6094,815,47.6094,815,363,22,363,22,24" style="stroke: #000000; stroke-width: 2.0;"/><line style="stroke: #000000; stroke-width: 2.0;" x1="22" x2="124" y1="47.6094" y2="47.6094"/><text fill="#000000" font-family="sans-serif" font-size="14" font-weight="bold" lengthAdjust="spacingAndGlyphs" textLength="89" x="26" y="40.5332">AngularJS UI</text><rect fill="#FEFECE" filter="url(#f1)" height="55.2188" style="stroke: #A80036; stroke-width: 1.5;" width="72" x="664" y="903"/><rect fill="#FEFECE" height="5" style="stroke: #A80036; stroke-width: 1.5;" width="10" x="659" y="908"/><rect fill="#FEFECE" height="5" style="stroke: #A80036; stroke-width: 1.5;" width="10" x="659" y="948.2188"/><text fill="#000000" font-family="sans-serif" font-size="14" font-style="italic" lengthAdjust="spacingAndGlyphs" textLength="50" x="675" y="927.5332">«entity»</text><text fill="#000000" font-family="sans-serif" font-size="14" lengthAdjust="spacingAndGlyphs" textLength="52" x="674" y="945.1426">UserInfo</text><rect fill="#FEFECE" filter="url(#f1)" height="55.2188" style="stroke: #A80036; stroke-width: 1.5;" width="83" x="968.5" y="903"/><rect fill="#FEFECE" height="5" style="stroke: #A80036; stroke-width: 1.5;" width="10" x="963.5" y="908"/><rect fill="#FEFECE" height="5" style="stroke: #A80036; stroke-width: 1.5;" width="10" x="963.5" y="948.2188"/><text fill="#000000" font-family="sans-serif" font-size="14" font-style="italic" lengthAdjust="spacingAndGlyphs" textLength="50" x="985" y="927.5332">«entity»</text><text fill="#000000" font-family="sans-serif" font-size="14" lengthAdjust="spacingAndGlyphs" textLength="63" x="978.5" y="945.1426">GroupInfo</text><rect fill="#FEFECE" filter="url(#f1)" height="55.2188" style="stroke: #A80036; stroke-width: 1.5;" width="111" x="1086.5" y="903"/><rect fill="#FEFECE" height="5" style="stroke: #A80036; stroke-width: 1.5;" width="10" x="1081.5" y="908"/><rect fill="#FEFECE" height="5" style="stroke: #A80036; stroke-width: 1.5;" width="10" x="1081.5" y="948.2188"/><text fill="#000000" font-family="sans-serif" font-size="14" font-style="italic" lengthAdjust="spacingAndGlyphs" textLength="50" x="1117" y="927.5332">«entity»</text><text fill="#000000" font-family="sans-serif" font-size="14" lengthAdjust="spacingAndGlyphs" textLength="91" x="1096.5" y="945.1426">GroupMember</text><rect fill="#FEFECE" filter="url(#f1)" height="55.2188" style="stroke: #A80036; stroke-width: 1.5;" width="117" x="477.5" y="903"/><rect fill="#FEFECE" height="5" style="stroke: #A80036; stroke-width: 1.5;" width="10" x="472.5" y="908"/><rect fill="#FEFECE" height="5" style="stroke: #A80036; stroke-width: 1.5;" width="10" x="472.5" y="948.2188"/><text fill="#000000" font-family="sans-serif" font-size="14" font-style="italic" lengthAdjust="spacingAndGlyphs" textLength="79" x="496.5" y="927.5332">«repository»</text><text fill="#000000" font-family="sans-serif" font-size="14" lengthAdjust="spacingAndGlyphs" textLength="97" x="487.5" y="945.1426">UserRepository</text><rect fill="#FEFECE" filter="url(#f1)" height="55.2188" style="stroke: #A80036; stroke-width: 1.5;" width="128" x="771" y="903"/><rect fill="#FEFECE" height="5" style="stroke: #A80036; stroke-width: 1.5;" width="10" x="766" y="908"/><rect fill="#FEFECE" height="5" style="stroke: #A80036; stroke-width: 1.5;" width="10" x="766" y="948.2188"/><text fill="#000000" font-family="sans-serif" font-size="14" font-style="italic" lengthAdjust="spacingAndGlyphs" textLength="79" x="795.5" y="927.5332">«repository»</text><text fill="#000000" font-family="sans-serif" font-size="14" lengthAdjust="spacingAndGlyphs" textLength="108" x="781" y="945.1426">GroupRepository</text><rect fill="#FEFECE" filter="url(#f1)" height="55.2188" style="stroke: #A80036; stroke-width: 1.5;" width="179" x="1267.5" y="903"/><rect fill="#FEFECE" height="5" style="stroke: #A80036; stroke-width: 1.5;" width="10" x="1262.5" y="908"/><rect fill="#FEFECE" height="5" style="stroke: #A80036; stroke-width: 1.5;" width="10" x="1262.5" y="948.2188"/><text fill="#000000" font-family="sans-serif" font-size="14" font-style="italic" lengthAdjust="spacingAndGlyphs" textLength="79" x="1317.5" y="927.5332">«repository»</text><text fill="#000000" font-family="sans-serif" font-size="14" lengthAdjust="spacingAndGlyphs" textLength="159" x="1277.5" y="945.1426">GroupMemberRepository</text><ellipse cx="673" cy="814" fill="#FEFECE" filter="url(#f1)" rx="8" ry="8" style="stroke: #A80036; stroke-width: 2.0;"/><text fill="#000000" font-family="sans-serif" font-size="14" lengthAdjust="spacingAndGlyphs" textLength="57" x="644.5" y="837.5332">dataRest</text><rect fill="#FEFECE" filter="url(#f1)" height="37.6094" style="stroke: #A80036; stroke-width: 1.5;" width="128" x="771" y="804"/><rect fill="#FEFECE" height="5" style="stroke: #A80036; stroke-width: 1.5;" width="10" x="766" y="809"/><rect fill="#FEFECE" height="5" style="stroke: #A80036; stroke-width: 1.5;" width="10" x="766" y="831.6094"/><text fill="#000000" font-family="sans-serif" font-size="14" lengthAdjust="spacingAndGlyphs" textLength="108" x="781" y="828.5332">Spring Data Rest</text><ellipse cx="392" cy="459" fill="#FEFECE" filter="url(#f1)" rx="8" ry="8" style="stroke: #A80036; stroke-width: 2.0;"/><text fill="#000000" font-family="sans-serif" font-size="14" lengthAdjust="spacingAndGlyphs" textLength="24" x="380" y="482.5332">rest</text><rect fill="#FEFECE" filter="url(#f1)" height="37.6094" style="stroke: #A80036; stroke-width: 1.5;" width="111" x="473.5" y="449"/><rect fill="#FEFECE" height="5" style="stroke: #A80036; stroke-width: 1.5;" width="10" x="468.5" y="454"/><rect fill="#FEFECE" height="5" style="stroke: #A80036; stroke-width: 1.5;" width="10" x="468.5" y="476.6094"/><text fill="#000000" font-family="sans-serif" font-size="14" lengthAdjust="spacingAndGlyphs" textLength="91" x="483.5" y="473.5332">RestController</text><rect fill="#FEFECE" filter="url(#f1)" height="55.2188" style="stroke: #A80036; stroke-width: 1.5;" width="144" x="350" y="565"/><rect fill="#FEFECE" height="5" style="stroke: #A80036; stroke-width: 1.5;" width="10" x="345" y="570"/><rect fill="#FEFECE" height="5" style="stroke: #A80036; stroke-width: 1.5;" width="10" x="345" y="610.2188"/><text fill="#000000" font-family="sans-serif" font-size="14" font-style="italic" lengthAdjust="spacingAndGlyphs" textLength="75" x="384.5" y="589.5332">«controller»</text><text fill="#000000" font-family="sans-serif" font-size="14" lengthAdjust="spacingAndGlyphs" textLength="124" x="360" y="607.1426">Rest UserController</text><rect fill="#FEFECE" filter="url(#f1)" height="55.2188" style="stroke: #A80036; stroke-width: 1.5;" width="155" x="592.5" y="565"/><rect fill="#FEFECE" height="5" style="stroke: #A80036; stroke-width: 1.5;" width="10" x="587.5" y="570"/><rect fill="#FEFECE" height="5" style="stroke: #A80036; stroke-width: 1.5;" width="10" x="587.5" y="610.2188"/><text fill="#000000" font-family="sans-serif" font-size="14" font-style="italic" lengthAdjust="spacingAndGlyphs" textLength="75" x="632.5" y="589.5332">«controller»</text><text fill="#000000" font-family="sans-serif" font-size="14" lengthAdjust="spacingAndGlyphs" textLength="135" x="602.5" y="607.1426">Rest GroupController</text><ellipse cx="383" cy="691" fill="#FEFECE" filter="url(#f1)" rx="8" ry="8" style="stroke: #A80036; stroke-width: 2.0;"/><text fill="#000000" font-family="sans-serif" font-size="14" lengthAdjust="spacingAndGlyphs" textLength="114" x="326" y="714.5332">UserDataInterface</text><rect fill="#FEFECE" filter="url(#f1)" height="37.6094" style="stroke: #A80036; stroke-width: 1.5;" width="126" x="510" y="681"/><rect fill="#FEFECE" height="5" style="stroke: #A80036; stroke-width: 1.5;" width="10" x="505" y="686"/><rect fill="#FEFECE" height="5" style="stroke: #A80036; stroke-width: 1.5;" width="10" x="505" y="708.6094"/><text fill="#000000" font-family="sans-serif" font-size="14" lengthAdjust="spacingAndGlyphs" textLength="106" x="520" y="705.5332">UserDataService</text><ellipse cx="734" cy="691" fill="#FEFECE" filter="url(#f1)" rx="8" ry="8" style="stroke: #A80036; stroke-width: 2.0;"/><text fill="#000000" font-family="sans-serif" font-size="14" lengthAdjust="spacingAndGlyphs" textLength="125" x="671.5" y="714.5332">GroupDataInterface</text><rect fill="#FEFECE" filter="url(#f1)" height="37.6094" style="stroke: #A80036; stroke-width: 1.5;" width="137" x="866.5" y="681"/><rect fill="#FEFECE" height="5" style="stroke: #A80036; stroke-width: 1.5;" width="10" x="861.5" y="686"/><rect fill="#FEFECE" height="5" style="stroke: #A80036; stroke-width: 1.5;" width="10" x="861.5" y="708.6094"/><text fill="#000000" font-family="sans-serif" font-size="14" lengthAdjust="spacingAndGlyphs" textLength="117" x="876.5" y="705.5332">GroupDataService</text><rect fill="#FEFECE" filter="url(#f1)" height="55.2188" style="stroke: #A80036; stroke-width: 1.5;" width="106" x="693" y="60"/><rect fill="#FEFECE" height="5" style="stroke: #A80036; stroke-width: 1.5;" width="10" x="688" y="65"/><rect fill="#FEFECE" height="5" style="stroke: #A80036; stroke-width: 1.5;" width="10" x="688" y="105.2188"/><text fill="#000000" font-family="sans-serif" font-size="14" font-style="italic" lengthAdjust="spacingAndGlyphs" textLength="75" x="708.5" y="84.5332">«controller»</text><text fill="#000000" font-family="sans-serif" font-size="14" lengthAdjust="spacingAndGlyphs" textLength="86" x="703" y="102.1426">NavController</text><rect fill="#FEFECE" filter="url(#f1)" height="55.2188" style="stroke: #A80036; stroke-width: 1.5;" width="136" x="663" y="176"/><rect fill="#FEFECE" height="5" style="stroke: #A80036; stroke-width: 1.5;" width="10" x="658" y="181"/><rect fill="#FEFECE" height="5" style="stroke: #A80036; stroke-width: 1.5;" width="10" x="658" y="221.2188"/><text fill="#000000" font-family="sans-serif" font-size="14" font-style="italic" lengthAdjust="spacingAndGlyphs" textLength="60" x="701" y="200.5332">«service»</text><text fill="#000000" font-family="sans-serif" font-size="14" lengthAdjust="spacingAndGlyphs" textLength="116" x="673" y="218.1426">NotificationService</text><rect fill="#FEFECE" filter="url(#f1)" height="55.2188" style="stroke: #A80036; stroke-width: 1.5;" width="164" x="271" y="60"/><rect fill="#FEFECE" height="5" style="stroke: #A80036; stroke-width: 1.5;" width="10" x="266" y="65"/><rect fill="#FEFECE" height="5" style="stroke: #A80036; stroke-width: 1.5;" width="10" x="266" y="105.2188"/><text fill="#000000" font-family="sans-serif" font-size="14" font-style="italic" lengthAdjust="spacingAndGlyphs" textLength="75" x="315.5" y="84.5332">«controller»</text><text fill="#000000" font-family="sans-serif" font-size="14" lengthAdjust="spacingAndGlyphs" textLength="144" x="281" y="102.1426">Angular UserController</text><rect fill="#FEFECE" filter="url(#f1)" height="55.2188" style="stroke: #A80036; stroke-width: 1.5;" width="96" x="140" y="292"/><rect fill="#FEFECE" height="5" style="stroke: #A80036; stroke-width: 1.5;" width="10" x="135" y="297"/><rect fill="#FEFECE" height="5" style="stroke: #A80036; stroke-width: 1.5;" width="10" x="135" y="337.2188"/><text fill="#000000" font-family="sans-serif" font-size="14" font-style="italic" lengthAdjust="spacingAndGlyphs" textLength="60" x="158" y="316.5332">«service»</text><text fill="#000000" font-family="sans-serif" font-size="14" lengthAdjust="spacingAndGlyphs" textLength="76" x="150" y="334.1426">UserService</text><rect fill="#FEFECE" filter="url(#f1)" height="55.2188" style="stroke: #A80036; stroke-width: 1.5;" width="151" x="112.5" y="176"/><rect fill="#FEFECE" height="5" style="stroke: #A80036; stroke-width: 1.5;" width="10" x="107.5" y="181"/><rect fill="#FEFECE" height="5" style="stroke: #A80036; stroke-width: 1.5;" width="10" x="107.5" y="221.2188"/><text fill="#000000" font-family="sans-serif" font-size="14" font-style="italic" lengthAdjust="spacingAndGlyphs" textLength="75" x="150.5" y="200.5332">«controller»</text><text fill="#000000" font-family="sans-serif" font-size="14" lengthAdjust="spacingAndGlyphs" textLength="131" x="122.5" y="218.1426">UserDialogController</text><rect fill="#FEFECE" filter="url(#f1)" height="55.2188" style="stroke: #A80036; stroke-width: 1.5;" width="175" x="482.5" y="60"/><rect fill="#FEFECE" height="5" style="stroke: #A80036; stroke-width: 1.5;" width="10" x="477.5" y="65"/><rect fill="#FEFECE" height="5" style="stroke: #A80036; stroke-width: 1.5;" width="10" x="477.5" y="105.2188"/><text fill="#000000" font-family="sans-serif" font-size="14" font-style="italic" lengthAdjust="spacingAndGlyphs" textLength="75" x="532.5" y="84.5332">«controller»</text><text fill="#000000" font-family="sans-serif" font-size="14" lengthAdjust="spacingAndGlyphs" textLength="155" x="492.5" y="102.1426">Angular GroupController</text><rect fill="#FEFECE" filter="url(#f1)" height="55.2188" style="stroke: #A80036; stroke-width: 1.5;" width="107" x="520.5" y="176"/><rect fill="#FEFECE" height="5" style="stroke: #A80036; stroke-width: 1.5;" width="10" x="515.5" y="181"/><rect fill="#FEFECE" height="5" style="stroke: #A80036; stroke-width: 1.5;" width="10" x="515.5" y="221.2188"/><text fill="#000000" font-family="sans-serif" font-size="14" font-style="italic" lengthAdjust="spacingAndGlyphs" textLength="60" x="544" y="200.5332">«service»</text><text fill="#000000" font-family="sans-serif" font-size="14" lengthAdjust="spacingAndGlyphs" textLength="87" x="530.5" y="218.1426">GroupService</text><rect fill="#FEFECE" filter="url(#f1)" height="55.2188" style="stroke: #A80036; stroke-width: 1.5;" width="162" x="50" y="60"/><rect fill="#FEFECE" height="5" style="stroke: #A80036; stroke-width: 1.5;" width="10" x="45" y="65"/><rect fill="#FEFECE" height="5" style="stroke: #A80036; stroke-width: 1.5;" width="10" x="45" y="105.2188"/><text fill="#000000" font-family="sans-serif" font-size="14" font-style="italic" lengthAdjust="spacingAndGlyphs" textLength="75" x="93.5" y="84.5332">«controller»</text><text fill="#000000" font-family="sans-serif" font-size="14" lengthAdjust="spacingAndGlyphs" textLength="142" x="60" y="102.1426">GroupDialogController</text><rect fill="#FEFECE" filter="url(#f1)" height="37.6094" style="stroke: #A80036; stroke-width: 1.5;" width="186" x="299" y="184.5"/><rect fill="#FEFECE" height="5" style="stroke: #A80036; stroke-width: 1.5;" width="10" x="294" y="189.5"/><rect fill="#FEFECE" height="5" style="stroke: #A80036; stroke-width: 1.5;" width="10" x="294" y="212.1094"/><text fill="#000000" font-family="sans-serif" font-size="14" lengthAdjust="spacingAndGlyphs" textLength="166" x="309" y="209.0332">Angular MemberController</text><rect fill="#FEFECE" filter="url(#f1)" height="37.6094" style="stroke: #A80036; stroke-width: 1.5;" width="118" x="333" y="300.5"/><rect fill="#FEFECE" height="5" style="stroke: #A80036; stroke-width: 1.5;" width="10" x="328" y="305.5"/><rect fill="#FEFECE" height="5" style="stroke: #A80036; stroke-width: 1.5;" width="10" x="328" y="328.1094"/><text fill="#000000" font-family="sans-serif" font-size="14" lengthAdjust="spacingAndGlyphs" textLength="98" x="343" y="325.0332">MemberService</text><path d="M594.617,930.5 C615.959,930.5 637.3,930.5 658.642,930.5 " fill="none" style="stroke: #A80036; stroke-width: 1.0;"/><polygon fill="#A80036" points="663.775,930.5,654.775,926.5,658.775,930.5,654.775,934.5,663.775,930.5" style="stroke: #A80036; stroke-width: 1.0;"/><path d="M899.258,930.5 C920.617,930.5 941.976,930.5 963.335,930.5 " fill="none" style="stroke: #A80036; stroke-width: 1.0;"/><polygon fill="#A80036" points="968.472,930.5,959.472,926.5,963.472,930.5,959.472,934.5,968.472,930.5" style="stroke: #A80036; stroke-width: 1.0;"/><path d="M1197.85,930.5 C1219.34,930.5 1240.82,930.5 1262.31,930.5 " fill="none" style="stroke: #A80036; stroke-width: 1.0;"/><polygon fill="#A80036" points="1267.48,930.5,1258.48,926.5,1262.48,930.5,1258.48,934.5,1267.48,930.5" style="stroke: #A80036; stroke-width: 1.0;"/><path d="M701.793,823 C724.861,823 747.93,823 770.998,823 " fill="none" style="stroke: #A80036; stroke-width: 1.0;"/><path d="M783.94,842.016 C732.939,860.011 654.425,887.715 599.449,907.1124 " fill="none" style="stroke: #A80036; stroke-width: 1.0;"/><polygon fill="#A80036" points="594.537,908.8456,604.3552,909.622,599.2519,907.1814,601.6925,902.0781,594.537,908.8456" style="stroke: #A80036; stroke-width: 1.0;"/><path d="M835,842.377 C835,857.464 835,879.196 835,897.1809 " fill="none" style="stroke: #A80036; stroke-width: 1.0;"/><polygon fill="#A80036" points="835,902.6305,839,893.6305,835,897.6305,831,893.6305,835,902.6305" style="stroke: #A80036; stroke-width: 1.0;"/><path d="M899.007,836.936 C989.856,855.298 1156.83,889.045 1262.11,910.3227 " fill="none" style="stroke: #A80036; stroke-width: 1.0;"/><polygon fill="#A80036" points="1267.08,911.3264,1259.0614,905.6078,1262.1809,910.3268,1257.462,913.4463,1267.08,911.3264" style="stroke: #A80036; stroke-width: 1.0;"/><path d="M404.041,468 C427.145,468 450.25,468 473.354,468 " fill="none" style="stroke: #A80036; stroke-width: 1.0;"/><path d="M440.148,700 C463.415,700 486.681,700 509.947,700 " fill="none" style="stroke: #A80036; stroke-width: 1.0;"/><path d="M796.813,700 C820.024,700 843.235,700 866.446,700 " fill="none" style="stroke: #A80036; stroke-width: 1.0;"/><path d="M412.159,620.122 C405.656,637.714 397.235,660.492 391.116,677.044 " fill="none" style="stroke: #A80036; stroke-width: 1.0;"/><polygon fill="#A80036" points="389.296,681.969,396.1692,674.915,391.0302,677.2794,388.6658,672.1403,389.296,681.969" style="stroke: #A80036; stroke-width: 1.0;"/><path d="M686.15,620.122 C696.914,637.865 710.878,660.885 720.94,677.471 " fill="none" style="stroke: #A80036; stroke-width: 1.0;"/><polygon fill="#A80036" points="723.668,681.969,722.4177,672.1998,721.0737,677.6947,715.5788,676.3507,723.668,681.969" style="stroke: #A80036; stroke-width: 1.0;"/><path d="M509.725,491.067 C491.67,511.738 464.651,542.67 445.374,564.74 " fill="none" style="stroke: #A80036; stroke-width: 1.0; stroke-dasharray: 7.0,7.0;"/><polygon fill="#A80036" points="513.212,487.075,504.2799,491.2245,509.9238,490.8417,510.3066,496.4856,513.212,487.075" style="stroke: #A80036; stroke-width: 1.0;"/><text fill="#000000" font-family="sans-serif" font-size="13" lengthAdjust="spacingAndGlyphs" textLength="19" x="487" y="531.4951">isA</text><path d="M553.821,490.564 C577.693,511.304 613.836,542.705 639.462,564.969 " fill="none" style="stroke: #A80036; stroke-width: 1.0; stroke-dasharray: 7.0,7.0;"/><polygon fill="#A80036" points="549.805,487.075,553.978,495.9961,553.5803,490.3532,559.2232,489.9556,549.805,487.075" style="stroke: #A80036; stroke-width: 1.0;"/><text fill="#000000" font-family="sans-serif" font-size="13" lengthAdjust="spacingAndGlyphs" textLength="19" x="604" y="531.4951">isA</text><path d="M587.971,719.115 C606.101,741.052 636.58,777.931 655.698,801.065 " fill="none" style="stroke: #A80036; stroke-width: 1.0;"/><polygon fill="#A80036" points="658.898,804.936,656.2456,795.451,655.7119,801.0826,650.0802,800.5488,658.898,804.936" style="stroke: #A80036; stroke-width: 1.0;"/><path d="M885.177,719.023 C863.418,726.705 837.543,735.586 814,743 C787.564,751.326 778.777,747.579 754,760 C732.254,770.901 710.525,787.954 695.054,801.418 " fill="none" style="stroke: #A80036; stroke-width: 1.0;"/><polygon fill="#A80036" points="691.26,804.758,700.6582,801.8127,695.0127,801.4539,695.3715,795.8084,691.26,804.758" style="stroke: #A80036; stroke-width: 1.0;"/><path d="M270.888,105.469 C203.544,121.248 116.011,146.688 95,176 C67.7664,213.993 109.73,259.461 145.753,288.648 " fill="none" style="stroke: #A80036; stroke-width: 1.0;"/><polygon fill="#A80036" points="149.664,291.773,145.1307,283.0295,145.7581,288.6514,140.1362,289.2789,149.664,291.773" style="stroke: #A80036; stroke-width: 1.0;"/><path d="M435.178,112.94 C493.716,130.394 574.237,154.496 645,176 C649.281,177.301 653.681,178.643 658.119,180 " fill="none" style="stroke: #A80036; stroke-width: 1.0;"/><polygon fill="#A80036" points="662.946,181.477,655.51,175.019,658.1648,180.0142,653.1695,182.669,662.946,181.477" style="stroke: #A80036; stroke-width: 1.0;"/><path d="M188,231.228 C188,247.808 188,269.202 188,286.658 " fill="none" style="stroke: #A80036; stroke-width: 1.0;"/><polygon fill="#A80036" points="188,291.94,192,282.94,188,286.94,184,282.94,188,291.94" style="stroke: #A80036; stroke-width: 1.0;"/><path d="M224.943,347.03 C269.776,379.226 343.389,432.091 375.809,455.373 " fill="none" style="stroke: #A80036; stroke-width: 1.0;"/><polygon fill="#A80036" points="379.921,458.325,374.9446,449.8258,375.86,455.4081,370.2777,456.3235,379.921,458.325" style="stroke: #A80036; stroke-width: 1.0;"/><text fill="#000000" font-family="sans-serif" font-size="13" lengthAdjust="spacingAndGlyphs" textLength="22" x="291" y="393.4951">http</text><path d="M90.4159,115.078 C80.9765,123.43 72.1805,133.516 67,145 C45.6172,192.4 39.0718,218.136 67,262 C82.0005,285.56 109.678,299.458 134.78,307.57 " fill="none" style="stroke: #A80036; stroke-width: 1.0;"/><polygon fill="#A80036" points="139.761,309.116,132.3519,302.6271,134.9859,307.6333,129.9797,310.2673,139.761,309.116" style="stroke: #A80036; stroke-width: 1.0;"/><path d="M570.938,115.228 C571.52,131.808 572.27,153.202 572.883,170.658 " fill="none" style="stroke: #A80036; stroke-width: 1.0;"/><polygon fill="#A80036" points="573.068,175.94,576.7493,166.805,572.8923,170.9431,568.7542,167.0861,573.068,175.94" style="stroke: #A80036; stroke-width: 1.0;"/><path d="M615.665,115.225 C630.405,124.278 646.639,134.712 661,145 C672.842,153.484 685.279,163.356 696.329,172.501 " fill="none" style="stroke: #A80036; stroke-width: 1.0;"/><polygon fill="#A80036" points="700.334,175.833,695.9756,167.001,696.491,172.6343,690.8577,173.1498,700.334,175.833" style="stroke: #A80036; stroke-width: 1.0;"/><path d="M212.276,106.46 C304.346,127.018 448.529,159.919 502,176 C506.403,177.324 510.927,178.773 515.46,180.289 " fill="none" style="stroke: #A80036; stroke-width: 1.0;"/><polygon fill="#A80036" points="520.377,181.957,513.1381,175.2789,515.6418,180.3515,510.5692,182.8552,520.377,181.957" style="stroke: #A80036; stroke-width: 1.0;"/><path d="M407.483,448.615 C423.268,429.606 448.183,398.86 468,371 C502.163,322.972 538.27,264.321 558.286,231.002 " fill="none" style="stroke: #A80036; stroke-width: 1.0;"/><polygon fill="#A80036" points="404.064,452.72,412.897,448.3635,407.2635,448.8777,406.7493,443.2443,404.064,452.72" style="stroke: #A80036; stroke-width: 1.0;"/><text fill="#000000" font-family="sans-serif" font-size="13" lengthAdjust="spacingAndGlyphs" textLength="22" x="522" y="324.9951">http</text><path d="M392,222.564 C392,242.126 392,273.41 392,294.903 " fill="none" style="stroke: #A80036; stroke-width: 1.0;"/><polygon fill="#A80036" points="392,300.143,396,291.143,392,295.143,388,291.143,392,300.143" style="stroke: #A80036; stroke-width: 1.0;"/><path d="M423.957,184.455 C449.187,170.583 485.804,152.968 520.5,145.5 C566.991,135.494 581.487,133.486 627.5,145.5 C648.812,151.064 670.379,162.101 688.27,173.066 " fill="none" style="stroke: #A80036; stroke-width: 1.0;"/><polygon fill="#A80036" points="692.736,175.849,687.2124,167.6949,688.4922,173.205,682.9821,174.4849,692.736,175.849" style="stroke: #A80036; stroke-width: 1.0;"/><path d="M359.676,222.564 C327.611,240.482 277.951,268.233 240.275,289.288 " fill="none" style="stroke: #A80036; stroke-width: 1.0;"/><polygon fill="#A80036" points="235.741,291.821,245.5486,290.9204,240.1052,289.381,241.6446,283.9377,235.741,291.821" style="stroke: #A80036; stroke-width: 1.0;"/><path d="M392,338.758 C392,365.62 392,415.732 392,444.722 " fill="none" style="stroke: #A80036; stroke-width: 1.0;"/><polygon fill="#A80036" points="392,449.879,396,440.879,392,444.879,388,440.879,392,449.879" style="stroke: #A80036; stroke-width: 1.0;"/><text fill="#000000" font-family="sans-serif" font-size="13" lengthAdjust="spacingAndGlyphs" textLength="22" x="393" y="393.4951">http</text></g></svg>