<?xml version="1.0" encoding="UTF-8" standalone="yes"?><svg xmlns="http://www.w3.org/2000/svg" xmlns:xlink="http://www.w3.org/1999/xlink" height="290px" style="width:356px;height:290px;" version="1.1" viewBox="0 0 356 290" width="356px"><defs><filter height="300%" id="f1" width="300%" x="-1" y="-1"><feGaussianBlur result="blurOut" stdDeviation="2.0"/><feColorMatrix in="blurOut" result="blurOut2" type="matrix" values="0 0 0 0 0 0 0 0 0 0 0 0 0 0 0 0 0 0 .4 0"/><feOffset dx="4.0" dy="4.0" in="blurOut2" result="blurOut3"/><feBlend in="SourceGraphic" in2="blurOut3" mode="normal"/></filter></defs><g><rect fill="#FEFECE" filter="url(#f1)" height="111.5313" style="stroke: #A80036; stroke-width: 1.5;" width="112" x="6" y="8"/><ellipse cx="35.85" cy="28.0938" fill="#ADD1B2" rx="11" ry="11" style="stroke: #A80036; stroke-width: 1.0;"/><path d="M38.6156,23.9688 Q38.7719,23.75 38.9594,23.6406 Q39.1469,23.5313 39.3656,23.5313 Q39.7406,23.5313 39.975,23.7891 Q40.2094,24.0469 40.2094,24.6563 L40.2094,26.1094 Q40.2094,26.7188 39.975,26.9844 Q39.7406,27.25 39.3656,27.25 Q39.0219,27.25 38.8188,27.0469 Q38.6156,26.8594 38.5063,26.3438 Q38.4594,25.9844 38.2719,25.7969 Q37.9438,25.4219 37.3344,25.2031 Q36.725,24.9844 36.1,24.9844 Q35.3344,24.9844 34.7016,25.3125 Q34.0688,25.6406 33.5766,26.3906 Q33.0844,27.1406 33.0844,28.1719 L33.0844,29.2656 Q33.0844,30.5 33.975,31.3203 Q34.8656,32.1406 36.4594,32.1406 Q37.3969,32.1406 38.0531,31.8906 Q38.4438,31.7344 38.8656,31.2969 Q39.1313,31.0313 39.2797,30.9531 Q39.4281,30.875 39.6313,30.875 Q39.9594,30.875 40.2172,31.1328 Q40.475,31.3906 40.475,31.7344 Q40.475,32.0781 40.1313,32.4844 Q39.6313,33.0625 38.8344,33.3906 Q37.7563,33.8438 36.4594,33.8438 Q34.9438,33.8438 33.7406,33.2188 Q32.7563,32.7188 32.0688,31.6484 Q31.3813,30.5781 31.3813,29.2969 L31.3813,28.1406 Q31.3813,26.8125 31.9984,25.6641 Q32.6156,24.5156 33.7094,23.8984 Q34.8031,23.2813 36.0375,23.2813 Q36.7719,23.2813 37.4203,23.4453 Q38.0688,23.6094 38.6156,23.9688 Z "/><text fill="#000000" font-family="sans-serif" font-size="12" font-style="italic" lengthAdjust="spacingAndGlyphs" textLength="43" x="55.15" y="25.457">«entity»</text><text fill="#000000" font-family="sans-serif" font-size="12" lengthAdjust="spacingAndGlyphs" textLength="47" x="53.15" y="40.5508">UserInfo</text><line style="stroke: #A80036; stroke-width: 1.5;" x1="7" x2="117" y1="48.1875" y2="48.1875"/><text fill="#000000" font-family="sans-serif" font-size="11" lengthAdjust="spacingAndGlyphs" textLength="64" x="12" y="63.6064">userId: String</text><text fill="#000000" font-family="sans-serif" font-size="11" lengthAdjust="spacingAndGlyphs" textLength="75" x="12" y="77.4424">fullName: String</text><text fill="#000000" font-family="sans-serif" font-size="11" lengthAdjust="spacingAndGlyphs" textLength="83" x="12" y="91.2783">dateOfBirth: Date</text><text fill="#000000" font-family="sans-serif" font-size="11" lengthAdjust="spacingAndGlyphs" textLength="100" x="12" y="105.1143">emailAddress: String</text><line style="stroke: #A80036; stroke-width: 1.5;" x1="7" x2="117" y1="111.5313" y2="111.5313"/><rect fill="#FEFECE" filter="url(#f1)" height="83.8594" style="stroke: #A80036; stroke-width: 1.5;" width="101" x="246.5" y="198"/><ellipse cx="268.25" cy="218.0938" fill="#ADD1B2" rx="11" ry="11" style="stroke: #A80036; stroke-width: 1.0;"/><path d="M271.0156,213.9688 Q271.1719,213.75 271.3594,213.6406 Q271.5469,213.5313 271.7656,213.5313 Q272.1406,213.5313 272.375,213.7891 Q272.6094,214.0469 272.6094,214.6563 L272.6094,216.1094 Q272.6094,216.7188 272.375,216.9844 Q272.1406,217.25 271.7656,217.25 Q271.4219,217.25 271.2188,217.0469 Q271.0156,216.8594 270.9063,216.3438 Q270.8594,215.9844 270.6719,215.7969 Q270.3438,215.4219 269.7344,215.2031 Q269.125,214.9844 268.5,214.9844 Q267.7344,214.9844 267.1016,215.3125 Q266.4688,215.6406 265.9766,216.3906 Q265.4844,217.1406 265.4844,218.1719 L265.4844,219.2656 Q265.4844,220.5 266.375,221.3203 Q267.2656,222.1406 268.8594,222.1406 Q269.7969,222.1406 270.4531,221.8906 Q270.8438,221.7344 271.2656,221.2969 Q271.5313,221.0313 271.6797,220.9531 Q271.8281,220.875 272.0313,220.875 Q272.3594,220.875 272.6172,221.1328 Q272.875,221.3906 272.875,221.7344 Q272.875,222.0781 272.5313,222.4844 Q272.0313,223.0625 271.2344,223.3906 Q270.1563,223.8438 268.8594,223.8438 Q267.3438,223.8438 266.1406,223.2188 Q265.1563,222.7188 264.4688,221.6484 Q263.7813,220.5781 263.7813,219.2969 L263.7813,218.1406 Q263.7813,216.8125 264.3984,215.6641 Q265.0156,214.5156 266.1094,213.8984 Q267.2031,213.2813 268.4375,213.2813 Q269.1719,213.2813 269.8203,213.4453 Q270.4688,213.6094 271.0156,213.9688 Z "/><text fill="#000000" font-family="sans-serif" font-size="12" font-style="italic" lengthAdjust="spacingAndGlyphs" textLength="43" x="289.25" y="215.457">«entity»</text><text fill="#000000" font-family="sans-serif" font-size="12" lengthAdjust="spacingAndGlyphs" textLength="54" x="283.75" y="230.5508">GroupInfo</text><line style="stroke: #A80036; stroke-width: 1.5;" x1="247.5" x2="346.5" y1="238.1875" y2="238.1875"/><text fill="#000000" font-family="sans-serif" font-size="11" lengthAdjust="spacingAndGlyphs" textLength="89" x="252.5" y="253.6064">groupName: String</text><text fill="#000000" font-family="sans-serif" font-size="11" lengthAdjust="spacingAndGlyphs" textLength="87" x="252.5" y="267.4424">description: String</text><line style="stroke: #A80036; stroke-width: 1.5;" x1="247.5" x2="346.5" y1="273.8594" y2="273.8594"/><rect fill="#FEFECE" filter="url(#f1)" height="70.0234" style="stroke: #A80036; stroke-width: 1.5;" width="111" x="6.5" y="205"/><ellipse cx="21.5" cy="225.0938" fill="#ADD1B2" rx="11" ry="11" style="stroke: #A80036; stroke-width: 1.0;"/><path d="M24.2656,220.9688 Q24.4219,220.75 24.6094,220.6406 Q24.7969,220.5313 25.0156,220.5313 Q25.3906,220.5313 25.625,220.7891 Q25.8594,221.0469 25.8594,221.6563 L25.8594,223.1094 Q25.8594,223.7188 25.625,223.9844 Q25.3906,224.25 25.0156,224.25 Q24.6719,224.25 24.4688,224.0469 Q24.2656,223.8594 24.1563,223.3438 Q24.1094,222.9844 23.9219,222.7969 Q23.5938,222.4219 22.9844,222.2031 Q22.375,221.9844 21.75,221.9844 Q20.9844,221.9844 20.3516,222.3125 Q19.7188,222.6406 19.2266,223.3906 Q18.7344,224.1406 18.7344,225.1719 L18.7344,226.2656 Q18.7344,227.5 19.625,228.3203 Q20.5156,229.1406 22.1094,229.1406 Q23.0469,229.1406 23.7031,228.8906 Q24.0938,228.7344 24.5156,228.2969 Q24.7813,228.0313 24.9297,227.9531 Q25.0781,227.875 25.2813,227.875 Q25.6094,227.875 25.8672,228.1328 Q26.125,228.3906 26.125,228.7344 Q26.125,229.0781 25.7813,229.4844 Q25.2813,230.0625 24.4844,230.3906 Q23.4063,230.8438 22.1094,230.8438 Q20.5938,230.8438 19.3906,230.2188 Q18.4063,229.7188 17.7188,228.6484 Q17.0313,227.5781 17.0313,226.2969 L17.0313,225.1406 Q17.0313,223.8125 17.6484,222.6641 Q18.2656,221.5156 19.3594,220.8984 Q20.4531,220.2813 21.6875,220.2813 Q22.4219,220.2813 23.0703,220.4453 Q23.7188,220.6094 24.2656,220.9688 Z "/><text fill="#000000" font-family="sans-serif" font-size="12" font-style="italic" lengthAdjust="spacingAndGlyphs" textLength="43" x="53.5" y="222.457">«entity»</text><text fill="#000000" font-family="sans-serif" font-size="12" lengthAdjust="spacingAndGlyphs" textLength="79" x="35.5" y="237.5508">GroupMember</text><line style="stroke: #A80036; stroke-width: 1.5;" x1="7.5" x2="116.5" y1="245.1875" y2="245.1875"/><text fill="#000000" font-family="sans-serif" font-size="11" lengthAdjust="spacingAndGlyphs" textLength="82" x="12.5" y="260.6064">enabled: boolean</text><line style="stroke: #A80036; stroke-width: 1.5;" x1="7.5" x2="116.5" y1="267.0234" y2="267.0234"/><path d="M117.692,240 C154.82,240 203.458,240 240.709,240 " fill="none" style="stroke: #A80036; stroke-width: 1.0;"/><polygon fill="#A80036" points="246.119,240,237.119,236,241.119,240,237.119,244,246.119,240" style="stroke: #A80036; stroke-width: 1.0;"/><text fill="#000000" font-family="sans-serif" font-size="13" lengthAdjust="spacingAndGlyphs" textLength="92" x="136" y="233.4951">memberOfgroup</text><path d="M62,125.319 C62,151.902 62,182.1645 62,204.7789 " fill="none" style="stroke: #A80036; stroke-width: 1.0;"/><polygon fill="#A80036" points="62,120.055,58,129.055,62,125.055,66,129.055,62,120.055" style="stroke: #A80036; stroke-width: 1.0;"/><text fill="#000000" font-family="sans-serif" font-size="13" lengthAdjust="spacingAndGlyphs" textLength="47" x="63" y="164.4951">member</text></g></svg>