<?xml version="1.0" encoding="UTF-8" standalone="yes"?><svg xmlns="http://www.w3.org/2000/svg" xmlns:xlink="http://www.w3.org/1999/xlink" height="666px" style="width:1144px;height:666px;" version="1.1" viewBox="0 0 1144 666" width="1144px"><defs><filter height="300%" id="f1" width="300%" x="-1" y="-1"><feGaussianBlur result="blurOut" stdDeviation="2.0"/><feColorMatrix in="blurOut" result="blurOut2" type="matrix" values="0 0 0 0 0 0 0 0 0 0 0 0 0 0 0 0 0 0 .4 0"/><feOffset dx="4.0" dy="4.0" in="blurOut2" result="blurOut3"/><feBlend in="SourceGraphic" in2="blurOut3" mode="normal"/></filter></defs><g><polygon fill="#FFFFFF" filter="url(#f1)" points="22,24,117,24,124,47.6094,817,47.6094,817,400,22,400,22,24" style="stroke: #000000; stroke-width: 2.0;"/><line style="stroke: #000000; stroke-width: 2.0;" x1="22" x2="124" y1="47.6094" y2="47.6094"/><text fill="#000000" font-family="sans-serif" font-size="14" font-weight="bold" lengthAdjust="spacingAndGlyphs" textLength="89" x="26" y="40.5332">AngularJS UI</text><polygon fill="#FFFFFF" filter="url(#f1)" points="135,433,375,433,382,456.6094,1137,456.6094,1137,659,135,659,135,433" style="stroke: #000000; stroke-width: 2.0;"/><line style="stroke: #000000; stroke-width: 2.0;" x1="135" x2="382" y1="456.6094" y2="456.6094"/><text fill="#000000" font-family="sans-serif" font-size="14" font-weight="bold" lengthAdjust="spacingAndGlyphs" textLength="234" x="139" y="449.5332">Spring Data Rest Web Application</text><rect fill="#FEFECE" filter="url(#f1)" height="55.2188" style="stroke: #A80036; stroke-width: 1.5;" width="106" x="695" y="80"/><rect fill="#FEFECE" height="5" style="stroke: #A80036; stroke-width: 1.5;" width="10" x="690" y="85"/><rect fill="#FEFECE" height="5" style="stroke: #A80036; stroke-width: 1.5;" width="10" x="690" y="125.2188"/><text fill="#000000" font-family="sans-serif" font-size="14" font-style="italic" lengthAdjust="spacingAndGlyphs" textLength="75" x="710.5" y="104.5332">«controller»</text><text fill="#000000" font-family="sans-serif" font-size="14" lengthAdjust="spacingAndGlyphs" textLength="86" x="705" y="122.1426">NavController</text><rect fill="#FEFECE" filter="url(#f1)" height="55.2188" style="stroke: #A80036; stroke-width: 1.5;" width="136" x="628" y="196"/><rect fill="#FEFECE" height="5" style="stroke: #A80036; stroke-width: 1.5;" width="10" x="623" y="201"/><rect fill="#FEFECE" height="5" style="stroke: #A80036; stroke-width: 1.5;" width="10" x="623" y="241.2188"/><text fill="#000000" font-family="sans-serif" font-size="14" font-style="italic" lengthAdjust="spacingAndGlyphs" textLength="60" x="666" y="220.5332">«service»</text><text fill="#000000" font-family="sans-serif" font-size="14" lengthAdjust="spacingAndGlyphs" textLength="116" x="638" y="238.1426">NotificationService</text><rect fill="#FEFECE" filter="url(#f1)" height="55.2188" style="stroke: #A80036; stroke-width: 1.5;" width="111" x="280.5" y="80"/><rect fill="#FEFECE" height="5" style="stroke: #A80036; stroke-width: 1.5;" width="10" x="275.5" y="85"/><rect fill="#FEFECE" height="5" style="stroke: #A80036; stroke-width: 1.5;" width="10" x="275.5" y="125.2188"/><text fill="#000000" font-family="sans-serif" font-size="14" font-style="italic" lengthAdjust="spacingAndGlyphs" textLength="75" x="298.5" y="104.5332">«controller»</text><text fill="#000000" font-family="sans-serif" font-size="14" lengthAdjust="spacingAndGlyphs" textLength="91" x="290.5" y="122.1426">UserController</text><rect fill="#FEFECE" filter="url(#f1)" height="55.2188" style="stroke: #A80036; stroke-width: 1.5;" width="96" x="178" y="329"/><rect fill="#FEFECE" height="5" style="stroke: #A80036; stroke-width: 1.5;" width="10" x="173" y="334"/><rect fill="#FEFECE" height="5" style="stroke: #A80036; stroke-width: 1.5;" width="10" x="173" y="374.2188"/><text fill="#000000" font-family="sans-serif" font-size="14" font-style="italic" lengthAdjust="spacingAndGlyphs" textLength="60" x="196" y="353.5332">«service»</text><text fill="#000000" font-family="sans-serif" font-size="14" lengthAdjust="spacingAndGlyphs" textLength="76" x="188" y="371.1426">UserService</text><rect fill="#FEFECE" filter="url(#f1)" height="55.2188" style="stroke: #A80036; stroke-width: 1.5;" width="151" x="38.5" y="196"/><rect fill="#FEFECE" height="5" style="stroke: #A80036; stroke-width: 1.5;" width="10" x="33.5" y="201"/><rect fill="#FEFECE" height="5" style="stroke: #A80036; stroke-width: 1.5;" width="10" x="33.5" y="241.2188"/><text fill="#000000" font-family="sans-serif" font-size="14" font-style="italic" lengthAdjust="spacingAndGlyphs" textLength="75" x="76.5" y="220.5332">«controller»</text><text fill="#000000" font-family="sans-serif" font-size="14" lengthAdjust="spacingAndGlyphs" textLength="131" x="48.5" y="238.1426">UserDialogController</text><ellipse cx="509" cy="347.5" fill="#FEFECE" filter="url(#f1)" rx="8" ry="8" style="stroke: #A80036; stroke-width: 2.0;"/><text fill="#000000" font-family="sans-serif" font-size="14" lengthAdjust="spacingAndGlyphs" textLength="24" x="497" y="371.0332">rest</text><rect fill="#FEFECE" filter="url(#f1)" height="55.2188" style="stroke: #A80036; stroke-width: 1.5;" width="122" x="538" y="80"/><rect fill="#FEFECE" height="5" style="stroke: #A80036; stroke-width: 1.5;" width="10" x="533" y="85"/><rect fill="#FEFECE" height="5" style="stroke: #A80036; stroke-width: 1.5;" width="10" x="533" y="125.2188"/><text fill="#000000" font-family="sans-serif" font-size="14" font-style="italic" lengthAdjust="spacingAndGlyphs" textLength="75" x="561.5" y="104.5332">«controller»</text><text fill="#000000" font-family="sans-serif" font-size="14" lengthAdjust="spacingAndGlyphs" textLength="102" x="548" y="122.1426">GroupController</text><rect fill="#FEFECE" filter="url(#f1)" height="55.2188" style="stroke: #A80036; stroke-width: 1.5;" width="107" x="590.5" y="329"/><rect fill="#FEFECE" height="5" style="stroke: #A80036; stroke-width: 1.5;" width="10" x="585.5" y="334"/><rect fill="#FEFECE" height="5" style="stroke: #A80036; stroke-width: 1.5;" width="10" x="585.5" y="374.2188"/><text fill="#000000" font-family="sans-serif" font-size="14" font-style="italic" lengthAdjust="spacingAndGlyphs" textLength="60" x="614" y="353.5332">«service»</text><text fill="#000000" font-family="sans-serif" font-size="14" lengthAdjust="spacingAndGlyphs" textLength="87" x="600.5" y="371.1426">GroupService</text><rect fill="#FEFECE" filter="url(#f1)" height="55.2188" style="stroke: #A80036; stroke-width: 1.5;" width="162" x="431" y="196"/><rect fill="#FEFECE" height="5" style="stroke: #A80036; stroke-width: 1.5;" width="10" x="426" y="201"/><rect fill="#FEFECE" height="5" style="stroke: #A80036; stroke-width: 1.5;" width="10" x="426" y="241.2188"/><text fill="#000000" font-family="sans-serif" font-size="14" font-style="italic" lengthAdjust="spacingAndGlyphs" textLength="75" x="474.5" y="220.5332">«controller»</text><text fill="#000000" font-family="sans-serif" font-size="14" lengthAdjust="spacingAndGlyphs" textLength="142" x="441" y="238.1426">GroupDialogController</text><rect fill="#FEFECE" filter="url(#f1)" height="37.6094" style="stroke: #A80036; stroke-width: 1.5;" width="133" x="262.5" y="204.5"/><rect fill="#FEFECE" height="5" style="stroke: #A80036; stroke-width: 1.5;" width="10" x="257.5" y="209.5"/><rect fill="#FEFECE" height="5" style="stroke: #A80036; stroke-width: 1.5;" width="10" x="257.5" y="232.1094"/><text fill="#000000" font-family="sans-serif" font-size="14" lengthAdjust="spacingAndGlyphs" textLength="113" x="272.5" y="229.0332">MemberController</text><rect fill="#FEFECE" filter="url(#f1)" height="37.6094" style="stroke: #A80036; stroke-width: 1.5;" width="118" x="309" y="337.5"/><rect fill="#FEFECE" height="5" style="stroke: #A80036; stroke-width: 1.5;" width="10" x="304" y="342.5"/><rect fill="#FEFECE" height="5" style="stroke: #A80036; stroke-width: 1.5;" width="10" x="304" y="365.1094"/><text fill="#000000" font-family="sans-serif" font-size="14" lengthAdjust="spacingAndGlyphs" textLength="98" x="319" y="362.0332">MemberService</text><rect fill="#FEFECE" filter="url(#f1)" height="55.2188" style="stroke: #A80036; stroke-width: 1.5;" width="72" x="338" y="588"/><rect fill="#FEFECE" height="5" style="stroke: #A80036; stroke-width: 1.5;" width="10" x="333" y="593"/><rect fill="#FEFECE" height="5" style="stroke: #A80036; stroke-width: 1.5;" width="10" x="333" y="633.2188"/><text fill="#000000" font-family="sans-serif" font-size="14" font-style="italic" lengthAdjust="spacingAndGlyphs" textLength="50" x="349" y="612.5332">«entity»</text><text fill="#000000" font-family="sans-serif" font-size="14" lengthAdjust="spacingAndGlyphs" textLength="52" x="348" y="630.1426">UserInfo</text><rect fill="#FEFECE" filter="url(#f1)" height="55.2188" style="stroke: #A80036; stroke-width: 1.5;" width="83" x="642.5" y="588"/><rect fill="#FEFECE" height="5" style="stroke: #A80036; stroke-width: 1.5;" width="10" x="637.5" y="593"/><rect fill="#FEFECE" height="5" style="stroke: #A80036; stroke-width: 1.5;" width="10" x="637.5" y="633.2188"/><text fill="#000000" font-family="sans-serif" font-size="14" font-style="italic" lengthAdjust="spacingAndGlyphs" textLength="50" x="659" y="612.5332">«entity»</text><text fill="#000000" font-family="sans-serif" font-size="14" lengthAdjust="spacingAndGlyphs" textLength="63" x="652.5" y="630.1426">GroupInfo</text><rect fill="#FEFECE" filter="url(#f1)" height="55.2188" style="stroke: #A80036; stroke-width: 1.5;" width="111" x="760.5" y="588"/><rect fill="#FEFECE" height="5" style="stroke: #A80036; stroke-width: 1.5;" width="10" x="755.5" y="593"/><rect fill="#FEFECE" height="5" style="stroke: #A80036; stroke-width: 1.5;" width="10" x="755.5" y="633.2188"/><text fill="#000000" font-family="sans-serif" font-size="14" font-style="italic" lengthAdjust="spacingAndGlyphs" textLength="50" x="791" y="612.5332">«entity»</text><text fill="#000000" font-family="sans-serif" font-size="14" lengthAdjust="spacingAndGlyphs" textLength="91" x="770.5" y="630.1426">GroupMember</text><rect fill="#FEFECE" filter="url(#f1)" height="55.2188" style="stroke: #A80036; stroke-width: 1.5;" width="117" x="151.5" y="588"/><rect fill="#FEFECE" height="5" style="stroke: #A80036; stroke-width: 1.5;" width="10" x="146.5" y="593"/><rect fill="#FEFECE" height="5" style="stroke: #A80036; stroke-width: 1.5;" width="10" x="146.5" y="633.2188"/><text fill="#000000" font-family="sans-serif" font-size="14" font-style="italic" lengthAdjust="spacingAndGlyphs" textLength="79" x="170.5" y="612.5332">«repository»</text><text fill="#000000" font-family="sans-serif" font-size="14" lengthAdjust="spacingAndGlyphs" textLength="97" x="161.5" y="630.1426">UserRepository</text><rect fill="#FEFECE" filter="url(#f1)" height="55.2188" style="stroke: #A80036; stroke-width: 1.5;" width="128" x="445" y="588"/><rect fill="#FEFECE" height="5" style="stroke: #A80036; stroke-width: 1.5;" width="10" x="440" y="593"/><rect fill="#FEFECE" height="5" style="stroke: #A80036; stroke-width: 1.5;" width="10" x="440" y="633.2188"/><text fill="#000000" font-family="sans-serif" font-size="14" font-style="italic" lengthAdjust="spacingAndGlyphs" textLength="79" x="469.5" y="612.5332">«repository»</text><text fill="#000000" font-family="sans-serif" font-size="14" lengthAdjust="spacingAndGlyphs" textLength="108" x="455" y="630.1426">GroupRepository</text><rect fill="#FEFECE" filter="url(#f1)" height="55.2188" style="stroke: #A80036; stroke-width: 1.5;" width="179" x="941.5" y="588"/><rect fill="#FEFECE" height="5" style="stroke: #A80036; stroke-width: 1.5;" width="10" x="936.5" y="593"/><rect fill="#FEFECE" height="5" style="stroke: #A80036; stroke-width: 1.5;" width="10" x="936.5" y="633.2188"/><text fill="#000000" font-family="sans-serif" font-size="14" font-style="italic" lengthAdjust="spacingAndGlyphs" textLength="79" x="991.5" y="612.5332">«repository»</text><text fill="#000000" font-family="sans-serif" font-size="14" lengthAdjust="spacingAndGlyphs" textLength="159" x="951.5" y="630.1426">GroupMemberRepository</text><rect fill="#FEFECE" filter="url(#f1)" height="37.6094" style="stroke: #A80036; stroke-width: 1.5;" width="128" x="445" y="489"/><rect fill="#FEFECE" height="5" style="stroke: #A80036; stroke-width: 1.5;" width="10" x="440" y="494"/><rect fill="#FEFECE" height="5" style="stroke: #A80036; stroke-width: 1.5;" width="10" x="440" y="516.6094"/><text fill="#000000" font-family="sans-serif" font-size="14" lengthAdjust="spacingAndGlyphs" textLength="108" x="455" y="513.5332">Spring Data Rest</text><path d="M297.561,135.27 C278.488,150.723 257.011,171.866 245,196 C224.774,236.642 222.588,290.093 223.678,323.627 " fill="none" style="stroke: #A80036; stroke-width: 1.0;"/><polygon fill="#A80036" points="223.879,328.833,227.5289,319.6854,223.6862,323.8367,219.5349,319.994,223.879,328.833" style="stroke: #A80036; stroke-width: 1.0;"/><path d="M391.855,126.187 C453.958,145.853 554.501,177.692 622.842,199.333 " fill="none" style="stroke: #A80036; stroke-width: 1.0;"/><polygon fill="#A80036" points="627.706,200.874,620.3346,194.3424,622.9395,199.3638,617.9182,201.9687,627.706,200.874" style="stroke: #A80036; stroke-width: 1.0;"/><path d="M136.665,251.01 C154.913,272.353 180.586,302.382 199.73,324.774 " fill="none" style="stroke: #A80036; stroke-width: 1.0;"/><polygon fill="#A80036" points="202.984,328.58,200.1741,319.1405,199.7342,324.7802,194.0944,324.3402,202.984,328.58" style="stroke: #A80036; stroke-width: 1.0;"/><path d="M252.715,328.976 C269.534,313.688 292.62,296.151 317,288 C382.531,266.092 459.779,317.44 492.759,343.051 " fill="none" style="stroke: #A80036; stroke-width: 1.0;"/><polygon fill="#A80036" points="496.928,346.336,492.3343,337.6241,493.0006,343.2415,487.3832,343.9079,496.928,346.336" style="stroke: #A80036; stroke-width: 1.0;"/><text fill="#000000" font-family="sans-serif" font-size="13" lengthAdjust="spacingAndGlyphs" textLength="22" x="318" y="295.4951">http</text><path d="M454.124,251.01 C402.892,274.476 328.742,308.44 279.027,331.211 " fill="none" style="stroke: #A80036; stroke-width: 1.0;"/><polygon fill="#A80036" points="274.294,333.38,284.1422,333.27,278.8401,331.2984,280.8117,325.9962,274.294,333.38" style="stroke: #A80036; stroke-width: 1.0;"/><path d="M660.375,129.768 C707.912,147.63 767.964,173.731 782,196 C813.272,245.615 751.395,295.581 700.685,326.038 " fill="none" style="stroke: #A80036; stroke-width: 1.0;"/><polygon fill="#A80036" points="696.127,328.741,705.9082,327.5884,700.427,326.1896,701.8259,320.7084,696.127,328.741" style="stroke: #A80036; stroke-width: 1.0;"/><path d="M621.742,135.228 C636.215,152.237 654.998,174.312 670.052,192.005 " fill="none" style="stroke: #A80036; stroke-width: 1.0;"/><polygon fill="#A80036" points="673.4,195.94,670.613,186.4937,670.1594,192.1323,664.5207,191.6787,673.4,195.94" style="stroke: #A80036; stroke-width: 1.0;"/><path d="M538.712,251.01 C560.308,272.442 590.726,302.63 613.318,325.051 " fill="none" style="stroke: #A80036; stroke-width: 1.0;"/><polygon fill="#A80036" points="616.874,328.58,613.3032,319.4013,613.3249,325.0581,607.6681,325.0798,616.874,328.58" style="stroke: #A80036; stroke-width: 1.0;"/><path d="M526.595,356.5 C542.765,356.5 567.591,356.5 590.257,356.5 " fill="none" style="stroke: #A80036; stroke-width: 1.0;"/><polygon fill="#A80036" points="521.458,356.5,530.458,360.5,526.458,356.5,530.458,352.5,521.458,356.5" style="stroke: #A80036; stroke-width: 1.0;"/><text fill="#000000" font-family="sans-serif" font-size="13" lengthAdjust="spacingAndGlyphs" textLength="22" x="544.75" y="349.9951">http</text><path d="M335.908,242.682 C339.972,253.689 345.068,268.057 349,281 C354.149,297.948 359.066,317.344 362.607,332.096 " fill="none" style="stroke: #A80036; stroke-width: 1.0;"/><polygon fill="#A80036" points="363.847,337.308,365.6556,327.6266,362.6899,332.4437,357.8727,329.478,363.847,337.308" style="stroke: #A80036; stroke-width: 1.0;"/><path d="M354.341,204.214 C374.155,190.412 403.027,172.997 431.5,165.5 C501.127,147.167 523.873,147.167 593.5,165.5 C614.644,171.068 636.009,182.104 653.721,193.07 " fill="none" style="stroke: #A80036; stroke-width: 1.0;"/><polygon fill="#A80036" points="658.143,195.852,652.6563,187.673,653.9112,193.1889,648.3953,194.4439,658.143,195.852" style="stroke: #A80036; stroke-width: 1.0;"/><path d="M314.678,242.715 C297.993,263.936 270.159,299.336 250.122,324.821 " fill="none" style="stroke: #A80036; stroke-width: 1.0;"/><polygon fill="#A80036" points="246.976,328.822,255.6834,324.2198,250.0666,324.8916,249.3948,319.2748,246.976,328.822" style="stroke: #A80036; stroke-width: 1.0;"/><path d="M427.388,356.5 C450.649,356.5 475.565,356.5 491.662,356.5 " fill="none" style="stroke: #A80036; stroke-width: 1.0;"/><polygon fill="#A80036" points="496.768,356.5,487.768,352.5,491.768,356.5,487.768,360.5,496.768,356.5" style="stroke: #A80036; stroke-width: 1.0;"/><text fill="#000000" font-family="sans-serif" font-size="13" lengthAdjust="spacingAndGlyphs" textLength="22" x="451" y="349.9951">http</text><path d="M268.617,615.5 C289.959,615.5 311.3,615.5 332.642,615.5 " fill="none" style="stroke: #A80036; stroke-width: 1.0;"/><polygon fill="#A80036" points="337.775,615.5,328.775,611.5,332.775,615.5,328.775,619.5,337.775,615.5" style="stroke: #A80036; stroke-width: 1.0;"/><path d="M573.258,615.5 C594.617,615.5 615.976,615.5 637.335,615.5 " fill="none" style="stroke: #A80036; stroke-width: 1.0;"/><polygon fill="#A80036" points="642.472,615.5,633.472,611.5,637.472,615.5,633.472,619.5,642.472,615.5" style="stroke: #A80036; stroke-width: 1.0;"/><path d="M871.85,615.5 C893.336,615.5 914.823,615.5 936.31,615.5 " fill="none" style="stroke: #A80036; stroke-width: 1.0;"/><polygon fill="#A80036" points="941.478,615.5,932.478,611.5,936.478,615.5,932.478,619.5,941.478,615.5" style="stroke: #A80036; stroke-width: 1.0;"/><path d="M509,374.65 C509,403.027 509,459.508 509,488.654 " fill="none" style="stroke: #A80036; stroke-width: 1.0;"/><path d="M457.94,527.016 C406.939,545.011 328.425,572.715 273.449,592.1124 " fill="none" style="stroke: #A80036; stroke-width: 1.0;"/><polygon fill="#A80036" points="268.537,593.8456,278.3552,594.622,273.2519,592.1814,275.6925,587.0781,268.537,593.8456" style="stroke: #A80036; stroke-width: 1.0;"/><path d="M509,527.377 C509,542.464 509,564.196 509,582.1809 " fill="none" style="stroke: #A80036; stroke-width: 1.0;"/><polygon fill="#A80036" points="509,587.6305,513,578.6305,509,582.6305,505,578.6305,509,587.6305" style="stroke: #A80036; stroke-width: 1.0;"/><path d="M573.007,521.936 C663.856,540.298 830.835,574.045 936.113,595.3227 " fill="none" style="stroke: #A80036; stroke-width: 1.0;"/><polygon fill="#A80036" points="941.079,596.3264,933.0492,590.6235,936.178,595.3364,931.4652,598.4651,941.079,596.3264" style="stroke: #A80036; stroke-width: 1.0;"/></g></svg>