<?xml version="1.0" encoding="UTF-8" ?>
<!DOCTYPE svg PUBLIC "-//W3C//DTD SVG 1.1//EN" "http://www.w3.org/Graphics/SVG/1.1/DTD/svg11.dtd">
<svg id="jedi-masters" width="612pt" height="602pt" viewBox="0 0 612 602" version="1.1" xmlns="http://www.w3.org/2000/svg">
<g id="#ffffffff">
</g>
<g id="#000000ff">
<path fill="#000000" opacity="1.00" d=" M 294.28 6.71 C 298.00 5.27 302.11 6.21 306.00 5.95 C 309.89 6.24 314.01 5.26 317.72 6.71 C 323.02 7.29 328.59 6.02 333.72 7.70 C 337.04 8.07 340.57 7.35 343.72 8.71 C 346.38 8.95 349.16 8.62 351.70 9.65 C 353.69 9.88 355.73 9.94 357.66 10.59 C 359.33 10.87 361.03 11.09 362.66 11.59 C 364.33 11.87 366.03 12.09 367.66 12.59 C 369.31 12.87 370.98 13.10 372.61 13.56 C 373.94 13.88 375.28 14.18 376.60 14.58 C 377.94 14.89 379.28 15.19 380.60 15.59 C 381.93 15.89 383.27 16.18 384.59 16.56 C 385.58 16.90 386.57 17.25 387.56 17.62 C 388.91 17.89 390.26 18.18 391.59 18.56 C 392.58 18.89 393.58 19.24 394.57 19.61 C 395.57 19.91 396.57 20.24 397.56 20.58 C 398.56 20.90 399.56 21.23 400.56 21.59 C 401.56 21.90 402.56 22.24 403.55 22.60 C 404.56 22.90 405.56 23.23 406.57 23.57 C 408.26 24.12 409.90 24.83 411.52 25.57 C 413.24 26.09 414.88 26.82 416.51 27.56 C 418.23 28.10 419.88 28.81 421.52 29.56 C 424.36 30.42 426.97 31.88 429.58 33.28 C 430.61 33.60 431.66 33.89 432.72 34.16 C 433.12 34.52 433.93 35.25 434.34 35.61 C 435.81 36.01 437.23 36.57 438.64 37.16 C 439.15 37.42 440.15 37.92 440.66 38.17 C 442.02 38.94 443.34 39.79 444.58 40.74 C 445.06 40.82 446.01 40.97 446.48 41.05 C 447.45 41.81 448.44 42.56 449.49 43.22 C 451.98 44.27 454.27 45.71 456.56 47.15 C 458.27 48.07 459.88 49.17 461.56 50.15 C 467.75 53.86 473.71 57.96 479.52 62.23 C 482.44 63.92 484.81 66.34 487.56 68.26 C 491.16 70.65 494.10 73.87 497.68 76.25 C 500.44 78.48 502.54 81.52 505.68 83.27 C 510.52 87.80 515.22 92.49 519.74 97.33 C 522.04 101.23 525.97 103.80 528.75 107.33 C 529.99 109.66 532.08 111.34 533.75 113.34 C 534.78 115.24 536.35 116.74 537.74 118.37 C 540.68 122.45 544.08 126.19 546.77 130.47 C 551.03 136.27 555.11 142.24 558.82 148.41 C 560.71 151.31 562.37 154.34 563.82 157.48 C 566.02 160.63 567.69 164.10 569.36 167.55 C 570.04 168.88 570.70 170.21 571.36 171.56 C 571.84 172.51 572.33 173.47 572.82 174.42 C 574.38 177.77 576.33 180.95 577.44 184.48 C 578.18 186.12 578.90 187.77 579.45 189.48 C 580.18 191.11 580.91 192.76 581.43 194.48 C 582.17 196.10 582.88 197.74 583.46 199.43 C 583.77 200.45 584.06 201.49 584.34 202.53 C 584.62 203.03 585.19 204.02 585.47 204.52 C 585.83 205.81 586.11 207.12 586.39 208.44 C 586.75 209.43 587.09 210.43 587.41 211.44 C 587.77 212.42 588.11 213.42 588.46 214.42 C 588.83 215.74 589.11 217.10 589.39 218.46 C 589.75 219.43 590.10 220.41 590.44 221.41 C 590.82 222.72 591.11 224.06 591.41 225.40 C 591.81 226.71 592.12 228.05 592.45 229.39 C 592.92 231.02 593.14 232.70 593.40 234.38 C 593.82 235.69 594.13 237.04 594.46 238.39 C 594.91 240.01 595.14 241.68 595.41 243.34 C 595.91 244.97 596.13 246.66 596.41 248.34 C 597.07 250.26 597.13 252.30 597.36 254.31 C 598.25 256.52 598.09 258.95 598.32 261.29 C 599.41 263.80 599.03 266.61 599.30 269.28 C 600.82 273.41 599.79 277.97 600.28 282.28 C 601.34 284.35 600.99 286.72 601.09 288.97 C 601.05 298.27 601.30 307.59 600.91 316.89 C 600.76 317.35 600.45 318.27 600.29 318.73 C 599.82 322.70 600.79 326.92 599.30 330.72 C 598.99 333.71 599.52 336.87 598.32 339.71 C 598.09 342.04 598.25 344.47 597.36 346.69 C 597.13 348.68 597.06 350.73 596.42 352.66 C 596.13 354.33 595.91 356.02 595.42 357.65 C 595.14 359.31 594.90 360.98 594.46 362.61 C 594.13 363.95 593.82 365.31 593.40 366.63 C 593.13 368.30 592.91 369.98 592.45 371.61 C 592.11 372.95 591.80 374.29 591.41 375.61 C 591.10 376.94 590.81 378.27 590.43 379.58 C 590.09 380.58 589.75 381.58 589.40 382.58 C 589.08 383.57 588.75 384.57 588.40 385.56 C 588.11 386.90 587.82 388.26 587.44 389.59 C 587.10 390.58 586.75 391.57 586.39 392.56 C 586.07 393.56 585.74 394.57 585.39 395.57 C 585.08 396.57 584.76 397.57 584.43 398.57 C 583.86 400.26 583.15 401.90 582.42 403.52 C 581.89 405.23 581.17 406.88 580.43 408.52 C 579.89 410.23 579.18 411.88 578.44 413.52 C 576.89 418.04 574.45 422.18 572.32 426.43 C 571.18 429.64 569.86 432.79 567.80 435.53 C 566.36 438.65 564.73 441.68 562.85 444.55 C 561.94 446.26 560.84 447.87 559.86 449.55 C 558.94 451.26 557.84 452.87 556.86 454.55 C 553.82 459.75 550.34 464.68 546.77 469.53 C 544.09 473.81 540.66 477.55 537.72 481.64 C 536.34 483.27 534.75 484.77 533.74 486.68 C 531.79 489.05 529.22 490.93 527.75 493.66 C 523.95 498.21 519.12 501.82 515.61 506.61 C 514.36 507.35 513.35 508.36 512.61 509.60 C 507.59 513.01 504.36 518.56 499.08 521.62 C 499.06 521.84 499.01 522.30 498.98 522.52 C 496.96 523.60 495.35 525.24 493.64 526.73 C 490.13 529.18 487.13 532.29 483.59 534.73 C 481.20 536.36 478.97 538.22 476.52 539.78 C 470.71 544.05 464.74 548.14 458.56 551.85 C 456.27 553.28 453.98 554.71 451.52 555.84 C 449.27 557.31 446.97 558.73 444.49 559.79 C 443.44 560.45 442.45 561.18 441.48 561.95 C 441.01 562.03 440.06 562.18 439.58 562.25 C 436.67 564.77 432.94 565.92 429.43 567.32 C 426.25 568.97 423.09 570.65 419.82 572.10 C 419.35 571.81 418.41 571.23 417.94 570.93 C 417.90 570.35 417.82 569.17 417.78 568.59 C 417.05 567.29 416.33 565.99 415.72 564.66 C 416.49 563.72 417.55 563.12 418.59 562.52 C 419.04 562.20 419.96 561.56 420.42 561.24 C 423.73 558.83 427.04 556.44 430.49 554.24 C 431.87 553.34 433.13 552.28 434.42 551.27 C 437.82 548.72 441.15 546.06 444.36 543.28 C 448.42 540.98 450.74 536.53 454.91 534.39 C 454.93 534.15 454.99 533.68 455.01 533.44 C 456.47 532.82 457.65 531.80 458.38 530.38 C 459.66 529.68 460.70 528.68 461.25 527.31 C 463.51 524.59 466.48 522.46 468.27 519.36 C 469.63 517.76 471.11 516.26 472.25 514.49 C 474.22 511.47 476.32 508.53 478.18 505.44 C 479.07 503.71 480.17 502.10 481.20 500.46 C 482.66 497.48 484.15 494.52 485.60 491.54 C 485.94 490.44 486.33 489.36 486.76 488.30 C 486.85 487.40 486.94 486.52 487.04 485.64 C 484.07 482.69 481.04 479.80 478.26 476.67 C 474.90 471.64 469.43 467.87 467.61 461.86 C 471.18 457.67 474.21 453.01 478.17 449.16 C 479.01 448.32 479.69 447.35 480.26 446.32 C 482.22 443.96 484.74 442.05 486.27 439.36 C 487.63 437.76 489.12 436.26 490.24 434.49 C 493.94 429.19 497.78 423.98 501.19 418.48 C 502.30 416.00 503.72 413.69 505.23 411.45 C 505.70 410.45 506.17 409.46 506.65 408.48 C 507.90 406.51 509.19 404.56 510.20 402.45 C 511.00 400.81 511.80 399.17 512.64 397.55 C 512.87 397.04 513.34 396.03 513.58 395.52 C 514.50 392.35 516.19 389.49 517.64 386.54 C 517.91 385.49 518.21 384.46 518.54 383.44 C 519.11 381.74 519.84 380.09 520.61 378.48 C 520.91 377.45 521.24 376.43 521.60 375.43 C 521.91 374.42 522.24 373.42 522.60 372.43 C 522.91 371.42 523.24 370.42 523.60 369.44 C 523.91 368.42 524.24 367.42 524.60 366.43 C 524.91 365.41 525.24 364.41 525.61 363.43 C 525.89 362.07 526.18 360.71 526.59 359.39 C 526.88 358.05 527.17 356.71 527.56 355.41 C 527.90 354.40 528.26 353.40 528.65 352.41 C 528.87 350.70 529.05 348.97 529.60 347.34 C 529.87 345.65 530.09 343.96 530.60 342.33 C 530.88 340.64 531.08 338.93 531.64 337.30 C 531.88 335.28 531.85 333.19 532.68 331.29 C 532.93 328.94 532.64 326.46 533.71 324.28 C 534.19 320.30 533.22 316.07 534.72 312.28 C 534.93 303.43 534.95 294.57 534.71 285.73 C 533.19 281.58 534.23 277.03 533.71 272.71 C 532.67 270.52 532.92 268.05 532.68 265.71 C 532.02 264.09 531.87 262.35 531.62 260.65 C 531.20 259.32 530.88 257.96 530.56 256.61 C 530.09 254.98 529.86 253.30 529.61 251.64 C 529.18 250.31 528.87 248.96 528.57 247.61 C 528.16 246.29 527.87 244.94 527.58 243.61 C 527.17 242.29 526.87 240.95 526.56 239.62 C 526.09 237.99 525.86 236.32 525.58 234.66 C 525.08 233.03 524.85 231.33 524.58 229.66 C 523.66 227.11 523.90 224.37 523.70 221.72 C 522.48 217.45 522.46 212.55 523.70 208.29 C 523.79 207.00 523.87 205.72 523.94 204.44 C 522.43 206.38 521.10 208.44 519.79 210.51 C 519.14 211.86 518.48 213.22 517.84 214.58 C 517.33 215.53 516.84 216.48 516.35 217.44 C 515.38 219.45 514.38 221.45 513.41 223.46 C 512.75 225.94 511.51 228.20 510.37 230.48 C 510.08 231.51 509.77 232.54 509.45 233.57 C 508.87 235.25 508.16 236.90 507.42 238.52 C 506.98 239.90 506.44 241.24 505.90 242.58 C 505.64 243.08 505.13 244.08 504.88 244.59 C 503.33 247.39 501.35 249.92 499.75 252.70 C 495.96 256.78 491.96 260.67 488.00 264.58 C 488.07 266.48 488.15 268.39 488.30 270.29 C 489.47 272.78 489.02 275.61 489.29 278.28 C 490.20 280.05 490.04 282.07 490.12 284.00 C 490.23 294.00 490.22 303.99 490.14 313.98 C 490.08 315.91 490.19 317.93 489.31 319.72 C 489.02 322.70 489.49 325.84 488.36 328.69 C 488.14 330.69 488.08 332.73 487.43 334.66 C 487.14 336.33 486.92 338.02 486.42 339.65 C 486.14 341.31 485.91 342.99 485.45 344.62 C 485.13 345.95 484.82 347.28 484.42 348.59 C 484.12 349.93 483.83 351.27 483.45 352.59 C 483.11 353.58 482.76 354.57 482.39 355.57 C 482.13 357.67 481.37 359.64 480.41 361.52 C 480.10 362.53 479.77 363.54 479.42 364.55 C 479.10 365.55 478.78 366.56 478.45 367.56 C 477.68 369.96 476.51 372.20 475.42 374.47 C 474.52 377.65 472.80 380.51 471.36 383.46 C 470.06 386.27 468.54 388.96 466.83 391.53 C 465.28 395.13 462.84 398.21 460.84 401.56 C 456.52 408.78 450.87 415.08 445.72 421.68 C 440.89 426.88 435.87 431.90 430.67 436.74 C 427.70 438.32 425.83 441.29 423.03 443.10 C 418.49 446.27 414.34 450.02 409.57 452.84 C 406.22 454.83 403.13 457.28 399.52 458.83 C 396.95 460.55 394.26 462.08 391.45 463.37 C 390.48 463.85 389.52 464.33 388.57 464.81 C 387.22 465.47 385.89 466.15 384.59 466.88 C 383.23 467.44 381.87 467.99 380.47 468.42 C 378.21 469.52 375.96 470.67 373.56 471.46 C 372.55 471.79 371.53 472.10 370.51 472.40 C 368.90 473.16 367.26 473.88 365.56 474.43 C 364.57 474.77 363.58 475.10 362.58 475.43 C 361.25 475.82 359.90 476.10 358.56 476.39 C 357.57 476.75 356.58 477.10 355.58 477.44 C 354.27 477.82 352.94 478.11 351.62 478.43 C 349.99 478.90 348.31 479.13 346.65 479.42 C 345.02 479.92 343.33 480.14 341.66 480.43 C 339.73 481.08 337.69 481.14 335.70 481.35 C 332.53 482.59 329.04 481.96 325.73 482.29 C 323.94 483.20 321.92 483.07 319.99 483.13 C 312.68 483.16 305.37 483.17 298.06 483.11 C 296.11 483.04 294.06 483.21 292.27 482.28 C 289.28 482.00 286.14 482.50 283.29 481.35 C 281.28 481.13 279.22 481.12 277.31 480.37 C 275.32 480.14 273.31 480.04 271.39 479.45 C 270.05 479.12 268.71 478.82 267.40 478.43 C 266.06 478.12 264.72 477.83 263.41 477.45 C 262.06 477.13 260.72 476.83 259.41 476.43 C 258.07 476.12 256.73 475.82 255.41 475.43 C 254.41 475.10 253.42 474.75 252.44 474.40 C 251.43 474.08 250.43 473.75 249.44 473.40 C 248.43 473.09 247.43 472.77 246.43 472.43 C 244.74 471.87 243.10 471.17 241.47 470.44 C 239.71 469.91 238.03 469.13 236.41 468.28 C 235.89 468.20 234.86 468.04 234.35 467.96 C 233.93 467.57 233.10 466.78 232.69 466.39 C 230.44 465.89 228.42 464.80 226.35 463.85 C 224.69 462.89 223.11 461.82 221.48 460.83 C 219.02 459.71 216.72 458.29 214.45 456.86 C 210.22 454.52 206.36 451.62 202.48 448.77 C 199.51 447.07 197.19 444.52 194.31 442.72 C 191.95 440.76 190.04 438.22 187.32 436.73 C 182.81 432.55 178.47 428.19 174.28 423.69 C 173.07 421.34 170.93 419.73 169.24 417.76 C 163.45 410.33 157.99 402.64 153.15 394.56 C 151.73 392.28 150.34 390.00 149.17 387.58 C 148.52 386.23 147.86 384.89 147.17 383.57 C 146.67 382.52 146.15 381.48 145.65 380.45 C 143.99 377.25 142.34 374.03 141.17 370.62 C 140.58 369.28 140.02 367.94 139.55 366.56 C 139.22 365.55 138.90 364.53 138.61 363.52 C 137.84 361.90 137.13 360.27 136.53 358.59 C 136.17 357.26 135.89 355.91 135.62 354.56 C 135.25 353.58 134.89 352.58 134.55 351.59 C 134.17 350.27 133.88 348.93 133.59 347.60 C 133.18 346.28 132.87 344.94 132.56 343.61 C 132.10 341.99 131.86 340.31 131.59 338.66 C 130.92 336.73 130.84 334.69 130.63 332.69 C 129.73 330.47 129.88 328.04 129.67 325.71 C 128.38 322.55 129.06 319.04 128.72 315.73 C 127.19 311.68 128.19 307.20 127.89 302.98 C 128.21 298.43 127.14 293.63 128.71 289.27 C 129.10 285.62 128.29 281.77 129.68 278.29 C 129.89 275.95 129.73 273.52 130.64 271.31 C 130.86 269.30 130.92 267.25 131.60 265.34 C 131.87 263.69 132.10 262.03 132.56 260.43 C 133.32 257.49 134.09 254.55 134.39 251.52 C 134.10 253.96 134.36 256.37 134.92 258.75 C 135.25 266.25 134.88 273.77 135.28 281.27 C 136.31 283.46 136.04 285.93 136.31 288.28 C 136.99 289.90 137.12 291.67 137.35 293.40 C 137.74 294.40 138.10 295.41 138.44 296.43 C 138.78 297.45 139.09 298.48 139.37 299.52 C 139.85 300.50 140.32 301.50 140.79 302.50 C 144.41 307.92 148.07 313.65 153.60 317.31 C 156.17 319.36 158.83 321.29 161.48 323.23 C 163.17 324.01 164.85 324.83 166.53 325.65 C 167.88 326.46 169.17 327.37 170.53 328.19 C 172.98 329.29 175.27 330.71 177.55 332.14 C 180.85 333.77 183.59 336.25 186.66 338.22 C 188.50 339.79 190.22 341.51 191.83 343.32 C 192.77 345.05 193.89 346.68 194.90 348.37 C 195.44 349.72 195.98 351.07 196.43 352.45 C 196.78 353.43 197.12 354.42 197.44 355.42 C 197.84 356.73 198.14 358.06 198.46 359.40 C 198.92 361.01 199.15 362.68 199.42 364.34 C 200.34 366.88 200.09 369.62 200.30 372.28 C 201.77 376.08 200.82 380.29 201.29 384.28 C 202.44 386.78 202.00 389.61 202.29 392.28 C 203.15 394.18 203.09 396.29 203.33 398.32 C 203.78 399.64 204.10 401.01 204.43 402.38 C 204.82 403.72 205.11 405.10 205.39 406.48 C 206.18 408.10 206.91 409.76 207.41 411.51 C 207.65 412.02 208.11 413.03 208.35 413.54 C 209.19 415.18 210.00 416.83 210.80 418.49 C 211.42 419.51 212.08 420.49 212.75 421.48 C 217.11 428.23 223.19 433.55 228.83 439.18 C 232.29 441.98 235.90 444.61 239.52 447.19 C 241.27 448.06 242.89 449.18 244.59 450.17 C 246.29 451.08 247.89 452.18 249.52 453.21 C 250.03 453.45 251.06 453.93 251.57 454.16 C 253.19 455.00 254.82 455.81 256.45 456.65 C 256.96 456.89 257.98 457.35 258.49 457.58 C 260.22 458.09 261.88 458.81 263.52 459.56 C 265.23 460.10 266.88 460.82 268.51 461.59 C 269.54 461.89 270.56 462.23 271.57 462.60 C 272.92 462.88 274.26 463.17 275.59 463.55 C 276.58 463.88 277.57 464.24 278.55 464.61 C 279.91 464.89 281.27 465.17 282.60 465.57 C 283.95 465.88 285.31 466.18 286.64 466.60 C 288.35 466.86 290.10 467.01 291.72 467.68 C 294.06 467.94 296.53 467.69 298.73 468.71 C 301.39 469.00 304.23 468.54 306.73 469.71 C 312.90 469.92 319.09 469.92 325.27 469.72 C 328.42 468.37 331.95 469.11 335.28 468.71 C 337.17 467.82 339.28 467.88 341.32 467.65 C 342.65 467.20 344.02 466.89 345.39 466.58 C 346.71 466.18 348.05 465.88 349.40 465.59 C 350.72 465.18 352.08 464.89 353.44 464.60 C 354.42 464.24 355.42 463.90 356.43 463.59 C 357.43 463.23 358.43 462.89 359.44 462.58 C 360.44 462.23 361.46 461.90 362.49 461.61 C 364.10 460.84 365.73 460.12 367.43 459.55 C 368.45 459.22 369.48 458.92 370.52 458.64 C 371.02 458.38 372.01 457.87 372.51 457.61 C 374.17 456.78 375.86 456.01 377.69 455.62 C 378.11 455.21 378.94 454.40 379.36 454.00 C 379.87 453.94 380.89 453.83 381.40 453.78 C 382.57 452.71 383.90 451.86 385.49 451.57 C 386.75 450.69 388.07 449.89 389.42 449.16 C 391.71 447.73 394.01 446.30 396.48 445.19 C 397.50 444.57 398.49 443.90 399.49 443.25 C 404.75 439.23 410.47 435.80 415.35 431.29 C 418.05 429.75 419.97 427.23 422.31 425.25 C 424.11 424.50 425.40 423.03 426.37 421.39 C 429.05 419.48 431.63 417.23 433.25 414.33 C 438.56 409.25 442.69 403.18 447.27 397.48 C 449.89 393.47 452.63 389.53 455.19 385.47 C 456.30 383.01 457.70 380.71 459.20 378.47 C 459.67 377.49 460.15 376.52 460.64 375.55 C 461.62 373.54 462.62 371.54 463.65 369.55 C 463.88 369.04 464.35 368.03 464.58 367.52 C 465.27 365.05 466.48 362.79 467.62 360.52 C 467.91 359.48 468.22 358.46 468.57 357.45 C 468.89 356.43 469.24 355.42 469.61 354.43 C 469.91 353.42 470.25 352.42 470.60 351.43 C 470.91 350.42 471.24 349.42 471.59 348.43 C 471.90 347.42 472.24 346.42 472.60 345.44 C 472.88 344.08 473.17 342.72 473.57 341.40 C 473.87 340.05 474.17 338.71 474.58 337.40 C 474.89 336.04 475.19 334.68 475.62 333.35 C 475.87 331.65 476.06 329.93 476.65 328.30 C 476.89 326.28 476.84 324.17 477.71 322.28 C 477.99 319.61 477.54 316.78 478.71 314.28 C 479.07 301.77 479.01 289.24 478.71 276.72 C 477.46 273.97 478.03 270.87 477.86 267.96 C 477.33 268.04 476.25 268.22 475.72 268.30 C 474.36 268.79 472.96 269.11 471.56 269.42 C 470.56 269.77 469.56 270.11 468.56 270.42 C 467.56 270.77 466.57 271.10 465.57 271.41 C 464.57 271.76 463.57 272.09 462.57 272.40 C 461.57 272.75 460.56 273.08 459.56 273.40 C 458.57 273.75 457.57 274.08 456.57 274.40 C 455.57 274.74 454.57 275.08 453.57 275.39 C 452.57 275.74 451.57 276.07 450.57 276.39 C 449.57 276.74 448.57 277.08 447.57 277.40 C 446.57 277.74 445.57 278.07 444.57 278.38 C 443.57 278.74 442.58 279.10 441.58 279.44 C 440.25 279.82 438.91 280.11 437.57 280.41 C 436.55 280.76 435.53 281.10 434.51 281.41 C 432.90 282.16 431.26 282.87 429.58 283.43 C 428.57 283.76 427.57 284.08 426.56 284.38 C 425.57 284.74 424.57 285.08 423.57 285.40 C 422.57 285.75 421.57 286.08 420.57 286.40 C 419.57 286.75 418.57 287.08 417.57 287.40 C 416.57 287.75 415.57 288.08 414.57 288.40 C 413.57 288.75 412.57 289.08 411.57 289.40 C 410.57 289.75 409.57 290.08 408.57 290.40 C 407.57 290.75 406.57 291.08 405.57 291.40 C 404.56 291.75 403.56 292.09 402.56 292.41 C 401.56 292.76 400.56 293.09 399.56 293.42 C 398.56 293.76 397.56 294.09 396.56 294.41 C 395.57 294.76 394.57 295.09 393.57 295.41 C 392.57 295.76 391.57 296.09 390.56 296.41 C 389.56 296.76 388.56 297.09 387.56 297.41 C 386.56 297.76 385.56 298.09 384.56 298.41 C 383.56 298.76 382.56 299.10 381.56 299.42 C 380.55 299.76 379.53 300.09 378.51 300.40 C 376.90 301.16 375.26 301.87 373.57 302.43 C 372.57 302.77 371.57 303.09 370.57 303.41 C 369.54 303.75 368.51 304.08 367.48 304.38 C 366.97 304.62 365.96 305.12 365.46 305.37 C 363.81 306.20 362.15 307.00 360.47 307.76 C 358.51 308.90 356.88 310.53 355.73 312.48 C 355.28 313.49 354.83 314.50 354.37 315.50 C 354.07 316.53 353.75 317.55 353.41 318.57 C 353.08 319.57 352.73 320.56 352.36 321.55 C 351.90 323.06 351.34 324.54 350.93 326.07 C 352.44 325.64 353.92 325.08 355.44 324.62 C 356.42 324.26 357.42 323.92 358.42 323.60 C 359.42 323.25 360.42 322.91 361.44 322.60 C 362.43 322.24 363.43 321.90 364.44 321.59 C 365.44 321.23 366.46 320.90 367.48 320.60 C 369.10 319.83 370.74 319.11 372.43 318.54 C 373.44 318.20 374.46 317.89 375.48 317.61 C 377.09 316.83 378.73 316.12 380.44 315.57 C 381.42 315.22 382.42 314.89 383.42 314.57 C 384.73 314.17 386.06 313.87 387.40 313.57 C 388.72 313.16 390.06 312.86 391.41 312.54 C 394.44 312.12 397.67 310.31 400.60 312.01 C 402.29 313.09 403.94 314.24 405.70 315.22 C 410.69 319.81 414.37 325.66 417.83 331.45 C 419.30 333.92 420.97 336.25 422.55 338.65 C 420.89 339.25 419.25 339.89 417.59 340.47 C 411.67 341.63 405.33 341.54 399.40 340.48 C 398.41 340.13 397.42 339.76 396.45 339.39 C 395.44 339.09 394.44 338.79 393.45 338.46 C 390.51 337.69 388.08 335.85 385.60 334.21 C 384.58 334.76 383.55 335.28 382.53 335.81 C 380.88 336.83 379.27 337.93 377.56 338.85 C 375.88 339.83 374.27 340.93 372.55 341.84 C 370.88 342.83 369.27 343.93 367.56 344.85 C 365.88 345.83 364.27 346.92 362.56 347.84 C 360.89 348.82 359.29 349.91 357.58 350.83 C 355.29 352.26 353.00 353.68 350.54 354.80 C 349.18 355.61 347.88 356.52 346.52 357.34 C 343.82 358.65 341.15 360.03 338.45 361.35 C 336.82 362.18 335.18 363.00 333.56 363.84 C 332.51 364.33 331.47 364.85 330.43 365.36 C 326.81 367.10 323.35 369.26 319.48 370.42 C 317.21 371.51 314.96 372.70 312.54 373.42 C 311.87 373.69 310.54 374.22 309.87 374.48 C 309.83 373.22 309.77 371.97 309.71 370.73 C 308.38 367.67 309.08 364.24 308.87 361.01 C 309.04 356.81 308.36 352.48 309.55 348.39 C 309.85 347.05 310.15 345.72 310.54 344.42 C 310.89 343.40 311.27 342.40 311.68 341.41 C 311.78 340.93 311.98 339.97 312.08 339.49 C 312.83 338.51 313.57 337.52 314.24 336.48 C 317.18 332.11 320.00 327.65 323.24 323.50 C 323.91 322.49 324.59 321.49 325.22 320.46 C 332.05 310.34 339.09 300.37 346.23 290.47 C 347.77 288.05 349.59 285.83 351.23 283.47 C 352.77 281.05 354.58 278.82 356.24 276.49 C 360.93 268.25 368.01 261.61 376.37 257.17 C 377.44 256.65 378.49 256.10 379.55 255.56 C 380.84 255.16 382.16 254.88 383.49 254.61 C 385.09 253.83 386.73 253.12 388.43 252.57 C 389.42 252.23 390.42 251.91 391.43 251.61 C 392.42 251.25 393.43 250.91 394.44 250.60 C 395.43 250.24 396.43 249.90 397.44 249.59 C 398.43 249.23 399.43 248.90 400.44 248.59 C 401.43 248.23 402.42 247.90 403.43 247.58 C 404.44 247.23 405.45 246.90 406.48 246.60 C 408.10 245.83 409.74 245.13 411.45 244.56 C 412.43 244.22 413.43 243.91 414.44 243.61 C 415.42 243.25 416.42 242.91 417.44 242.59 C 418.43 242.23 419.43 241.90 420.44 241.58 C 421.44 241.23 422.46 240.90 423.48 240.60 C 425.09 239.84 426.73 239.12 428.44 238.57 C 429.43 238.23 430.43 237.90 431.44 237.60 C 432.44 237.24 433.45 236.91 434.48 236.60 C 436.09 235.84 437.73 235.13 439.43 234.57 C 440.42 234.23 441.43 233.91 442.44 233.61 C 443.43 233.24 444.43 232.90 445.44 232.58 C 446.44 232.22 447.46 231.90 448.49 231.60 C 450.09 230.83 451.73 230.12 453.43 229.55 C 454.44 229.22 455.45 228.91 456.49 228.62 C 458.09 227.85 459.72 227.12 461.41 226.54 C 462.67 226.17 463.94 225.83 465.22 225.52 C 464.18 223.54 463.17 221.54 462.21 219.53 C 461.38 218.17 460.46 216.88 459.64 215.52 C 458.83 213.85 458.01 212.19 457.20 210.53 C 456.15 208.88 455.04 207.27 454.16 205.53 C 453.56 204.50 452.89 203.51 452.23 202.53 C 450.93 200.51 449.59 198.52 448.25 196.53 C 442.91 189.36 437.76 181.95 431.21 175.80 C 426.55 171.50 422.55 166.38 417.36 162.72 C 413.34 159.06 408.81 156.04 404.50 152.75 C 403.49 152.09 402.50 151.44 401.46 150.84 C 399.73 149.93 398.11 148.83 396.43 147.84 C 394.71 146.93 393.11 145.83 391.47 144.80 C 389.13 143.65 386.81 142.48 384.46 141.36 C 383.45 140.75 382.47 140.08 381.51 139.41 C 380.10 138.97 378.73 138.42 377.38 137.84 C 375.20 136.62 372.97 135.48 370.64 134.58 C 372.05 136.28 373.32 138.08 373.26 140.40 C 374.47 143.89 374.45 148.10 373.27 151.59 C 373.26 155.23 370.17 157.60 368.63 160.63 C 365.60 162.17 363.23 165.26 359.59 165.27 C 356.10 166.46 351.89 166.47 348.41 165.27 C 344.77 165.26 342.40 162.17 339.37 160.63 C 337.82 157.60 334.74 155.23 334.73 151.59 C 333.54 148.10 333.54 143.90 334.73 140.41 C 334.88 136.64 337.77 133.80 340.22 131.22 C 342.78 128.54 346.09 126.92 349.67 126.15 C 350.87 126.05 352.07 125.97 353.28 125.89 C 353.06 124.63 352.66 123.44 352.09 122.32 C 351.98 119.72 351.77 117.07 352.45 114.53 C 353.49 112.93 354.83 111.52 356.51 110.58 C 357.81 110.16 359.14 109.81 360.44 109.37 C 362.09 109.86 363.80 110.11 365.48 110.53 C 367.14 111.51 368.49 112.92 369.55 114.53 C 370.23 117.45 370.25 120.55 369.54 123.47 C 368.35 125.34 366.78 126.98 364.62 127.67 C 367.59 128.93 370.59 130.12 373.48 131.57 C 375.93 132.26 378.19 133.48 380.47 134.58 C 381.88 135.01 383.25 135.55 384.61 136.12 C 385.55 136.64 386.49 137.16 387.45 137.67 C 388.79 138.31 390.13 138.97 391.46 139.64 C 392.79 140.29 394.13 140.96 395.47 141.62 C 397.58 142.63 399.55 143.91 401.53 145.17 C 405.12 146.74 408.26 149.11 411.53 151.22 C 412.52 151.90 413.51 152.59 414.55 153.21 C 419.26 156.11 423.22 160.01 427.66 163.24 C 431.88 166.70 435.15 171.20 439.60 174.38 C 441.89 177.73 445.17 180.21 447.74 183.32 C 450.62 187.46 454.11 191.17 456.78 195.49 C 459.61 199.37 462.54 203.21 464.84 207.46 C 466.86 210.78 469.26 213.88 470.83 217.46 C 471.73 218.98 472.73 220.43 473.57 221.99 C 474.02 221.92 474.92 221.78 475.37 221.71 C 476.37 221.29 477.38 220.90 478.41 220.53 C 479.73 220.16 481.08 219.88 482.44 219.61 C 483.42 219.24 484.42 218.89 485.43 218.58 C 486.42 218.23 487.42 217.91 488.43 217.61 C 489.42 217.24 490.41 216.89 491.42 216.55 C 492.74 216.16 494.09 215.88 495.45 215.60 C 496.43 215.23 497.42 214.90 498.43 214.58 C 499.42 214.23 500.42 213.91 501.43 213.60 C 502.42 213.25 503.42 212.92 504.43 212.62 C 505.41 212.25 506.41 211.90 507.42 211.57 C 508.73 211.17 510.08 210.89 511.43 210.61 C 513.25 209.96 515.09 209.37 516.95 208.79 C 516.49 208.02 516.04 207.24 515.61 206.47 C 514.95 205.13 514.30 203.80 513.67 202.47 C 512.98 201.14 512.31 199.80 511.66 198.47 C 510.98 197.14 510.31 195.80 509.66 194.47 C 508.82 192.83 508.01 191.18 507.20 189.53 C 505.69 187.29 504.29 184.98 503.19 182.52 C 499.94 177.47 496.57 172.51 493.24 167.52 C 490.15 163.03 486.51 158.95 483.27 154.57 C 481.41 151.55 478.50 149.39 476.26 146.67 C 474.09 142.99 470.50 140.46 467.67 137.33 C 465.19 134.99 463.08 132.15 460.02 130.53 C 460.00 130.30 459.94 129.85 459.91 129.62 C 456.52 128.00 454.63 124.45 451.32 122.73 C 449.39 121.06 447.67 119.12 445.49 117.76 C 440.78 114.48 436.11 111.14 431.49 107.73 C 430.48 107.08 429.49 106.43 428.45 105.84 C 425.66 104.37 423.15 102.46 420.49 100.80 C 417.71 99.43 414.77 98.26 412.40 96.23 C 411.89 96.17 410.87 96.05 410.36 95.99 C 409.94 95.59 409.11 94.78 408.69 94.38 C 407.20 93.99 405.77 93.44 404.37 92.84 C 402.78 91.96 401.15 91.15 399.54 90.32 C 399.03 90.09 398.01 89.64 397.50 89.42 C 395.77 88.90 394.12 88.17 392.51 87.37 C 392.01 87.13 391.01 86.65 390.51 86.41 C 388.77 85.91 387.11 85.18 385.48 84.41 C 384.46 84.10 383.44 83.77 382.44 83.42 C 381.43 83.10 380.43 82.77 379.44 82.41 C 378.43 82.10 377.43 81.76 376.43 81.42 C 375.42 81.09 374.42 80.75 373.43 80.39 C 372.08 80.11 370.73 79.82 369.41 79.43 C 368.41 79.10 367.41 78.74 366.43 78.37 C 365.07 78.09 363.71 77.81 362.39 77.42 C 361.05 77.11 359.70 76.82 358.39 76.42 C 357.03 76.11 355.67 75.80 354.35 75.39 C 352.66 75.13 350.96 74.91 349.34 74.41 C 347.64 74.13 345.91 73.96 344.30 73.33 C 341.95 73.07 339.48 73.32 337.28 72.30 C 334.61 72.01 331.78 72.46 329.28 71.29 C 324.31 70.66 319.07 71.87 314.27 70.28 C 309.09 70.10 303.90 70.12 298.72 70.29 C 294.25 71.84 289.35 70.70 284.72 71.29 C 282.21 72.45 279.39 72.01 276.73 72.30 C 274.82 73.15 272.72 73.11 270.70 73.35 C 269.07 73.92 267.35 74.11 265.67 74.40 C 264.03 74.90 262.34 75.12 260.66 75.40 C 259.03 75.92 257.33 76.13 255.65 76.40 C 254.31 76.82 252.93 77.11 251.56 77.40 C 250.57 77.76 249.58 78.10 248.59 78.43 C 247.27 78.82 245.94 79.12 244.60 79.42 C 243.27 79.83 241.91 80.12 240.55 80.41 C 239.56 80.77 238.56 81.11 237.56 81.42 C 236.57 81.77 235.57 82.11 234.57 82.43 C 233.56 82.77 232.54 83.09 231.52 83.40 C 229.90 84.16 228.27 84.88 226.57 85.44 C 225.56 85.78 224.54 86.10 223.52 86.40 C 221.89 87.18 220.23 87.92 218.48 88.42 C 217.98 88.66 216.99 89.14 216.49 89.38 C 214.87 90.18 213.22 90.93 211.49 91.43 C 210.98 91.66 209.96 92.12 209.45 92.35 C 208.13 93.03 206.79 93.70 205.46 94.35 C 203.46 95.36 201.46 96.36 199.45 97.35 C 197.15 98.52 194.84 99.67 192.53 100.81 C 190.29 102.31 187.98 103.71 185.52 104.81 C 182.24 106.36 179.37 110.73 175.40 108.46 C 174.41 108.12 173.42 107.76 172.44 107.39 C 171.08 107.11 169.73 106.83 168.40 106.44 C 167.06 106.12 165.71 105.82 164.40 105.41 C 163.05 105.11 161.71 104.81 160.40 104.42 C 159.05 104.11 157.71 103.81 156.39 103.41 C 155.05 103.10 153.71 102.81 152.39 102.41 C 151.05 102.11 149.71 101.81 148.39 101.42 C 147.04 101.11 145.68 100.80 144.36 100.40 C 142.67 100.13 140.97 99.92 139.33 99.40 C 137.66 99.12 135.97 98.90 134.34 98.40 C 132.64 98.12 130.92 97.93 129.30 97.35 C 127.27 97.11 125.17 97.15 123.27 96.30 C 120.61 96.02 117.78 96.45 115.28 95.29 C 110.06 94.79 104.70 95.63 99.58 94.29 C 99.31 94.51 98.77 94.97 98.50 95.20 C 99.85 95.86 101.21 96.52 102.58 97.17 C 103.54 97.66 104.50 98.15 105.46 98.64 C 107.59 99.62 109.56 100.91 111.52 102.18 C 115.93 104.39 120.44 106.43 124.57 109.16 C 126.28 110.07 127.87 111.16 129.53 112.17 C 131.98 113.30 134.28 114.72 136.56 116.16 C 138.28 117.08 139.89 118.18 141.57 119.16 C 146.14 121.84 150.52 124.84 154.83 127.93 C 151.75 130.13 148.86 132.55 146.30 135.35 C 143.79 138.13 140.59 140.37 138.74 143.68 C 136.21 146.79 132.80 149.15 130.74 152.63 C 126.03 157.95 122.07 163.88 117.74 169.50 C 117.08 170.51 116.43 171.51 115.84 172.57 C 114.79 174.73 113.11 176.49 111.82 178.50 C 110.95 180.25 109.85 181.87 108.88 183.56 C 108.11 184.97 107.24 186.32 106.26 187.59 C 106.18 188.06 106.03 189.01 105.95 189.49 C 105.19 190.45 104.44 191.44 103.77 192.48 C 103.31 193.48 102.84 194.47 102.36 195.46 C 101.36 197.46 100.37 199.46 99.35 201.45 C 98.71 202.79 98.05 204.13 97.41 205.48 C 96.74 207.95 95.51 210.21 94.36 212.48 C 94.08 213.51 93.78 214.54 93.46 215.57 C 92.88 217.26 92.15 218.90 91.38 220.52 C 91.08 221.54 90.75 222.56 90.40 223.58 C 90.09 224.58 89.75 225.57 89.40 226.56 C 89.08 227.57 88.75 228.57 88.39 229.57 C 88.08 230.58 87.75 231.58 87.40 232.59 C 87.10 233.58 86.76 234.57 86.41 235.56 C 86.12 236.91 85.83 238.27 85.43 239.60 C 85.12 240.94 84.83 242.29 84.43 243.61 C 84.11 244.96 83.81 246.31 83.39 247.64 C 83.13 249.32 82.92 251.02 82.42 252.66 C 82.14 254.35 81.97 256.08 81.34 257.70 C 81.09 260.04 81.26 262.48 80.34 264.71 C 80.09 266.72 80.17 268.84 79.28 270.72 C 78.89 274.04 79.63 277.57 78.29 280.72 C 77.91 293.23 77.96 305.76 78.29 318.27 C 79.45 320.78 79.01 323.60 79.29 326.28 C 80.44 328.78 80.02 331.60 80.30 334.27 C 80.96 335.89 81.13 337.63 81.41 339.34 C 82.06 341.27 82.14 343.32 82.36 345.33 C 82.80 346.66 83.12 348.02 83.44 349.39 C 83.82 350.70 84.12 352.05 84.41 353.39 C 84.81 354.70 85.11 356.05 85.42 357.40 C 85.82 358.72 86.11 360.07 86.39 361.43 C 86.75 362.41 87.08 363.42 87.39 364.43 C 87.75 365.41 88.11 366.41 88.44 367.41 C 88.83 368.74 89.10 370.11 89.38 371.48 C 90.16 373.08 90.88 374.73 91.45 376.43 C 91.77 377.44 92.08 378.45 92.37 379.48 C 93.15 381.09 93.88 382.73 94.46 384.43 C 94.78 385.45 95.08 386.49 95.36 387.53 C 96.36 389.52 97.35 391.51 98.36 393.51 C 99.17 395.12 99.92 396.77 100.43 398.52 C 100.66 399.03 101.13 400.05 101.37 400.56 C 102.20 402.18 103.01 403.83 103.81 405.47 C 105.31 407.71 106.70 410.01 107.81 412.46 C 108.82 414.11 109.92 415.71 110.83 417.42 C 111.83 419.11 112.95 420.73 113.82 422.49 C 117.11 427.17 120.51 431.77 123.75 436.48 C 124.88 438.26 126.36 439.76 127.72 441.36 C 128.79 443.23 130.35 444.73 131.73 446.36 C 134.91 451.36 140.19 454.59 143.51 459.50 C 148.43 462.82 151.64 468.16 156.70 471.28 C 159.03 473.25 160.95 475.75 163.64 477.27 C 165.23 478.62 166.73 480.11 168.51 481.24 C 172.91 484.15 176.98 487.55 181.57 490.18 C 184.36 491.64 186.85 493.59 189.56 495.18 C 191.29 496.07 192.89 497.17 194.53 498.20 C 196.85 499.34 199.17 500.48 201.47 501.68 C 202.52 502.17 203.56 502.70 204.61 503.21 C 206.89 504.38 209.19 505.49 211.46 506.66 C 211.97 506.90 212.99 507.36 213.50 507.59 C 215.23 508.09 216.88 508.83 218.50 509.64 C 219.00 509.88 219.99 510.36 220.49 510.61 C 222.23 511.10 223.89 511.82 225.54 512.57 C 227.25 513.10 228.89 513.82 230.51 514.59 C 231.53 514.89 232.55 515.23 233.57 515.60 C 234.91 515.88 236.26 516.17 237.59 516.57 C 238.58 516.90 239.57 517.25 240.57 517.62 C 241.57 517.92 242.58 518.25 243.58 518.60 C 244.58 518.91 245.58 519.24 246.57 519.61 C 247.92 519.89 249.28 520.17 250.61 520.57 C 251.94 520.87 253.29 521.17 254.60 521.58 C 255.95 521.88 257.31 522.18 258.64 522.60 C 260.32 522.86 262.02 523.08 263.66 523.59 C 265.35 523.86 267.06 524.07 268.69 524.64 C 270.71 524.88 272.81 524.85 274.71 525.68 C 277.06 525.92 279.54 525.65 281.73 526.71 C 285.04 527.09 288.58 526.35 291.72 527.71 C 296.51 527.92 301.31 527.85 306.11 527.90 C 305.77 531.52 305.88 535.22 305.29 538.73 C 305.05 557.23 305.20 575.73 305.20 594.22 C 298.59 593.72 291.69 595.04 285.27 593.29 C 281.62 592.87 277.74 593.76 274.27 592.29 C 271.28 592.01 268.16 592.47 265.31 591.36 C 263.29 591.12 261.23 591.11 259.32 590.37 C 257.31 590.13 255.26 590.07 253.34 589.41 C 251.66 589.13 249.97 588.92 248.35 588.43 C 246.67 588.14 244.97 587.92 243.35 587.42 C 241.68 587.13 240.01 586.90 238.39 586.44 C 237.05 586.12 235.71 585.81 234.39 585.42 C 233.05 585.11 231.71 584.81 230.40 584.42 C 229.06 584.11 227.72 583.81 226.41 583.44 C 225.41 583.10 224.42 582.75 223.44 582.39 C 222.09 582.11 220.74 581.82 219.41 581.45 C 218.41 581.11 217.42 580.76 216.44 580.40 C 215.43 580.08 214.43 579.75 213.44 579.41 C 212.43 579.09 211.43 578.76 210.44 578.42 C 209.43 578.10 208.44 577.76 207.45 577.42 C 206.44 577.09 205.43 576.75 204.44 576.39 C 203.43 576.08 202.43 575.76 201.43 575.44 C 199.03 574.66 196.79 573.50 194.52 572.42 C 192.78 571.91 191.12 571.19 189.49 570.44 C 186.34 569.47 183.48 567.82 180.56 566.36 C 180.05 566.13 179.03 565.66 178.52 565.43 C 176.78 564.91 175.12 564.17 173.49 563.39 C 171.71 562.49 169.96 561.52 168.41 560.26 C 167.94 560.18 166.99 560.03 166.52 559.95 C 165.54 559.18 164.56 558.45 163.51 557.79 C 161.02 556.72 158.73 555.29 156.45 553.85 C 154.73 552.93 153.12 551.83 151.44 550.85 C 141.29 544.80 131.82 537.70 122.31 530.72 C 120.34 529.02 118.64 526.96 116.31 525.73 C 113.95 523.77 112.06 521.21 109.32 519.73 C 101.11 511.91 93.08 503.89 85.27 495.68 C 84.01 493.35 81.94 491.65 80.25 489.66 C 78.00 485.95 74.22 483.44 72.23 479.51 C 71.33 478.12 70.28 476.85 69.26 475.57 C 63.35 467.97 57.76 460.00 53.17 451.53 C 52.15 449.87 51.05 448.27 50.14 446.55 C 47.43 442.42 45.32 437.94 43.23 433.48 C 42.56 432.44 41.82 431.46 41.06 430.50 C 40.98 430.01 40.81 429.02 40.73 428.53 C 40.00 427.18 39.31 425.82 38.63 424.46 C 37.49 422.19 36.26 419.94 35.59 417.49 C 34.49 415.20 33.30 412.94 32.56 410.51 C 31.82 408.89 31.12 407.25 30.55 405.56 C 30.21 404.56 29.89 403.56 29.58 402.56 C 29.23 401.54 28.90 400.53 28.60 399.51 C 27.84 397.90 27.12 396.26 26.53 394.59 C 26.16 393.25 25.88 391.90 25.61 390.56 C 25.24 389.56 24.90 388.57 24.57 387.57 C 24.23 386.57 23.91 385.56 23.60 384.56 C 23.24 383.57 22.90 382.58 22.57 381.59 C 22.18 380.27 21.89 378.94 21.59 377.61 C 21.19 376.28 20.89 374.94 20.59 373.60 C 20.18 372.28 19.88 370.94 19.56 369.61 C 19.09 367.99 18.86 366.31 18.58 364.65 C 18.06 363.02 17.85 361.32 17.60 359.63 C 17.19 358.31 16.88 356.96 16.55 355.62 C 15.97 353.69 15.88 351.68 15.66 349.70 C 14.74 347.48 14.91 345.04 14.68 342.71 C 13.58 340.19 13.96 337.39 13.71 334.73 C 12.28 331.25 13.13 327.37 12.71 323.72 C 11.79 321.92 11.96 319.88 11.90 317.94 C 11.79 306.29 11.79 294.64 11.90 282.99 C 11.96 281.06 11.80 279.04 12.71 277.27 C 13.13 273.62 12.29 269.76 13.71 266.28 C 13.96 263.62 13.61 260.83 14.65 258.30 C 14.88 256.28 14.89 254.21 15.64 252.30 C 15.86 250.30 15.93 248.26 16.58 246.34 C 16.87 244.66 17.09 242.97 17.59 241.34 C 17.86 239.68 18.10 238.01 18.55 236.39 C 18.87 235.05 19.17 233.71 19.58 232.41 C 19.88 231.06 20.17 229.72 20.57 228.41 C 20.87 227.06 21.17 225.72 21.58 224.40 C 21.88 223.06 22.17 221.72 22.56 220.41 C 22.89 219.41 23.23 218.42 23.59 217.44 C 23.91 216.43 24.24 215.43 24.60 214.44 C 24.88 213.09 25.17 211.74 25.56 210.42 C 25.89 209.42 26.22 208.42 26.57 207.44 C 27.12 205.74 27.83 204.10 28.59 202.49 C 28.89 201.47 29.22 200.45 29.58 199.45 C 29.89 198.44 30.21 197.43 30.55 196.44 C 31.33 194.04 32.49 191.80 33.58 189.53 C 34.25 187.06 35.47 184.81 36.59 182.53 C 37.01 181.12 37.56 179.76 38.12 178.41 C 38.84 177.10 39.52 175.77 40.18 174.44 C 41.00 172.81 41.80 171.18 42.63 169.56 C 45.06 164.82 47.16 159.89 50.17 155.48 C 51.30 153.02 52.72 150.72 54.16 148.44 C 55.08 146.72 56.18 145.11 57.15 143.41 C 58.23 141.27 59.89 139.51 61.17 137.49 C 62.16 135.25 63.89 133.49 65.25 131.48 C 67.60 127.54 70.54 124.02 73.27 120.36 C 74.64 118.74 76.19 117.23 77.25 115.37 C 78.64 113.73 80.24 112.24 81.25 110.32 C 83.46 107.55 86.53 105.48 88.25 102.33 C 95.08 95.12 102.11 88.10 109.32 81.27 C 112.06 79.78 113.95 77.21 116.32 75.25 C 118.23 74.24 119.73 72.64 121.37 71.26 C 132.54 62.53 144.09 54.11 156.47 47.17 C 158.72 45.69 161.02 44.29 163.47 43.17 C 165.70 41.71 167.99 40.35 170.40 39.19 C 170.90 38.94 171.90 38.45 172.40 38.21 C 173.74 37.55 175.08 36.88 176.41 36.21 C 177.75 35.55 179.08 34.87 180.39 34.16 C 182.04 33.44 183.73 32.81 185.42 32.18 C 187.40 31.18 189.38 30.16 191.53 29.57 C 193.80 28.49 196.04 27.32 198.43 26.54 C 199.45 26.20 200.47 25.89 201.49 25.60 C 203.10 24.82 204.74 24.10 206.44 23.54 C 207.43 23.21 208.43 22.89 209.44 22.59 C 210.43 22.23 211.43 21.90 212.44 21.58 C 213.43 21.23 214.43 20.90 215.44 20.58 C 216.43 20.23 217.43 19.91 218.44 19.60 C 219.42 19.23 220.41 18.88 221.42 18.55 C 222.74 18.17 224.09 17.89 225.44 17.62 C 226.42 17.24 227.41 16.89 228.41 16.55 C 229.72 16.17 231.06 15.88 232.40 15.58 C 233.71 15.18 235.05 14.89 236.39 14.59 C 237.70 14.18 239.04 13.88 240.39 13.56 C 242.01 13.10 243.68 12.86 245.35 12.58 C 246.97 12.09 248.66 11.86 250.34 11.58 C 251.97 11.10 253.66 10.88 255.33 10.60 C 257.56 9.79 259.96 9.89 262.29 9.68 C 264.49 8.69 266.95 8.91 269.29 8.67 C 272.13 7.47 275.29 8.01 278.28 7.72 C 283.39 6.03 288.97 7.30 294.28 6.71 Z" />
<path fill="#000000" opacity="1.00" d=" M 122.27 101.37 C 124.79 101.32 127.29 101.87 129.68 102.64 C 131.70 102.87 133.81 102.84 135.71 103.68 C 138.04 103.89 140.43 103.78 142.66 104.60 C 144.35 104.87 146.07 105.06 147.70 105.64 C 149.68 105.87 151.70 105.96 153.62 106.56 C 154.95 106.88 156.29 107.19 157.61 107.58 C 158.94 107.88 160.28 108.18 161.60 108.57 C 162.93 108.87 164.27 109.17 165.59 109.56 C 166.58 109.88 167.57 110.23 168.56 110.59 C 169.56 110.90 170.56 111.24 171.56 111.59 C 172.56 111.89 173.56 112.21 174.56 112.55 C 178.06 113.69 181.24 115.59 184.55 117.16 C 188.81 119.03 192.64 121.65 196.53 124.15 C 201.79 127.14 206.70 130.69 211.57 134.25 C 212.88 135.29 214.16 136.37 215.57 137.26 C 216.90 138.32 218.20 139.42 219.69 140.26 C 222.44 142.49 224.54 145.52 227.67 147.26 C 232.19 151.45 236.55 155.81 240.74 160.33 C 242.30 163.29 245.21 165.17 247.22 167.79 C 250.61 172.45 254.63 176.63 257.77 181.48 C 261.34 186.32 264.83 191.25 267.86 196.45 C 268.84 198.12 269.94 199.73 270.86 201.45 C 272.29 203.73 273.70 206.02 274.83 208.47 C 276.54 211.04 278.07 213.73 279.34 216.55 C 279.84 217.50 280.33 218.46 280.83 219.42 C 281.33 220.46 281.84 221.50 282.34 222.55 C 283.35 224.53 284.35 226.52 285.36 228.51 C 286.16 230.12 286.91 231.77 287.41 233.51 C 287.65 234.01 288.13 235.01 288.38 235.51 C 289.17 237.12 289.90 238.77 290.44 240.48 C 291.18 242.12 291.89 243.77 292.43 245.48 C 293.17 247.11 293.89 248.76 294.42 250.48 C 295.16 252.10 295.86 253.73 296.43 255.43 C 296.76 256.42 297.08 257.43 297.39 258.44 C 297.75 259.43 298.09 260.43 298.41 261.44 C 298.76 262.42 299.09 263.42 299.41 264.43 C 299.75 265.42 300.08 266.42 300.40 267.43 C 300.74 268.42 301.07 269.42 301.38 270.43 C 301.74 271.42 302.09 272.42 302.42 273.42 C 302.81 274.73 303.12 276.06 303.43 277.39 C 303.82 278.72 304.11 280.08 304.39 281.45 C 304.77 282.42 305.13 283.41 305.47 284.40 C 305.91 286.02 306.15 287.69 306.42 289.35 C 307.23 291.37 307.31 293.69 306.37 295.69 C 306.17 297.67 306.06 299.68 305.48 301.59 C 305.14 302.58 304.79 303.57 304.44 304.56 C 303.89 306.25 303.19 307.89 302.45 309.51 C 301.47 312.66 299.79 315.52 298.33 318.47 C 296.70 321.80 295.04 325.13 293.37 328.44 C 293.13 328.95 292.65 329.96 292.42 330.47 C 291.98 331.88 291.43 333.25 290.87 334.62 C 290.35 335.55 289.83 336.50 289.33 337.45 C 288.69 338.79 288.03 340.12 287.36 341.46 C 286.19 343.83 284.98 346.19 283.82 348.57 C 282.79 350.57 281.79 352.57 280.81 354.59 C 279.62 356.88 278.47 359.20 277.34 361.52 C 276.52 362.88 275.62 364.18 274.83 365.56 C 273.92 367.28 272.82 368.88 271.86 370.56 C 270.93 372.30 269.80 373.91 268.73 375.56 C 268.48 376.20 267.99 377.49 267.75 378.14 L 267.32 378.00 C 266.33 376.14 265.14 374.40 264.16 372.55 C 263.17 370.88 262.07 369.28 261.16 367.57 C 259.49 365.08 258.00 362.47 257.17 359.58 C 256.19 357.62 255.22 355.66 254.53 353.59 C 254.16 352.27 253.87 350.94 253.57 349.61 C 252.60 346.65 252.52 343.34 253.55 340.39 C 253.86 339.06 254.17 337.73 254.57 336.42 C 254.89 335.42 255.22 334.42 255.57 333.44 C 256.12 331.74 256.82 330.10 257.56 328.48 C 258.52 325.34 260.21 322.49 261.59 319.53 C 262.48 316.35 264.21 313.49 265.65 310.54 C 265.90 310.03 266.39 309.02 266.64 308.51 C 266.91 307.47 267.21 306.45 267.54 305.43 C 268.19 303.43 269.12 301.54 270.09 299.67 C 268.15 300.16 266.30 300.90 264.50 301.75 C 260.51 304.43 256.50 307.09 252.50 309.74 C 249.93 311.38 247.98 313.76 245.69 315.73 C 241.46 318.36 238.48 322.53 234.81 325.84 C 232.71 328.05 230.19 329.96 228.72 332.69 C 224.89 336.89 220.78 340.81 216.79 344.85 C 215.75 345.79 215.08 347.02 214.56 348.31 C 214.16 347.89 213.35 347.05 212.94 346.63 C 212.90 346.11 212.82 345.07 212.78 344.56 C 212.49 344.03 211.91 342.99 211.61 342.47 C 210.49 340.19 209.25 337.94 208.61 335.47 C 208.34 334.97 207.81 333.97 207.55 333.48 C 207.16 332.20 206.87 330.90 206.55 329.61 C 205.60 326.31 205.42 322.58 206.65 319.33 C 206.75 318.84 206.96 317.86 207.06 317.37 C 208.59 315.80 210.25 314.30 211.26 312.32 C 213.78 309.48 216.48 306.79 219.32 304.26 C 222.06 302.79 223.95 300.22 226.31 298.27 C 228.65 297.04 230.34 294.95 232.33 293.26 C 236.86 290.02 240.87 285.83 244.27 281.42 C 245.28 280.14 246.33 278.88 247.25 277.54 C 247.70 276.50 248.16 275.48 248.62 274.45 C 249.25 273.44 249.94 272.46 250.64 271.50 C 250.92 270.47 251.23 269.44 251.56 268.42 C 251.93 267.37 252.33 266.33 252.77 265.31 C 252.96 262.11 252.96 258.89 252.76 255.69 C 252.33 254.65 251.95 253.59 251.62 252.51 C 251.38 252.01 250.91 250.99 250.68 250.48 C 249.83 248.83 249.01 247.16 248.23 245.48 C 243.84 239.30 238.81 233.63 234.25 227.57 C 233.37 226.15 232.28 224.87 231.25 223.57 C 229.91 221.54 228.22 219.75 227.13 217.57 C 226.16 215.88 225.06 214.27 224.15 212.55 C 223.18 210.90 222.11 209.32 221.18 207.65 C 220.24 205.60 219.23 203.59 218.20 201.59 C 216.88 198.92 215.57 196.25 214.20 193.61 C 213.01 191.30 211.91 188.94 211.24 186.43 C 210.55 185.42 209.79 184.45 209.04 183.50 C 208.97 183.02 208.83 182.06 208.75 181.57 C 208.01 180.59 207.29 179.60 206.64 178.55 C 205.54 176.19 204.36 173.87 203.20 171.54 C 202.17 169.88 201.06 168.28 200.16 166.55 C 199.57 165.51 198.91 164.50 198.26 163.50 C 196.57 161.18 194.77 158.96 193.25 156.52 C 187.70 148.60 180.44 142.15 173.67 135.30 C 172.68 134.31 171.59 133.42 170.37 132.74 C 165.43 128.30 159.68 124.88 154.49 120.75 C 153.48 120.08 152.49 119.40 151.46 118.78 C 150.47 118.09 149.49 117.40 148.48 116.77 C 147.49 116.10 146.50 115.44 145.47 114.84 C 143.73 113.94 142.11 112.83 140.43 111.84 C 138.71 110.92 137.10 109.82 135.43 108.83 C 133.71 107.91 132.10 106.82 130.43 105.85 C 129.06 105.11 127.75 104.29 126.49 103.39 C 125.04 102.80 123.63 102.14 122.27 101.37 Z" />
</g>
</svg>
